<svg width="44" height="48" viewBox="0 0 44 48" fill="none" xmlns="http://www.w3.org/2000/svg">
<path fill-rule="evenodd" clip-rule="evenodd" d="M17.6265 6.5H32.4282L43.8943 25.1661L28.1157 41.115L5.42735 37.0691L0.269623 17.8593L17.6265 6.5ZM18.1538 11.4692L11.3378 26.5742L17.7882 31.9153L26.6128 28.1178L18.1538 11.4692ZM30.4814 26.7692L39.6952 24.0619L32.497 12.3435L30.4814 26.7692ZM29.8651 9.5H20.5183L27.8492 23.9284L29.8651 9.5ZM36.8446 28.0263L30.0656 30.0182L29.5208 35.4291L36.8446 28.0263ZM26.3441 37.0343L26.9265 31.2487L20.8692 33.8554L26.3441 37.0343ZM19.5047 36.5321L8.59208 34.5862L10.2395 29.5598L16.6775 34.8906L19.5047 36.5321ZM7.80687 27.3497L5.10318 24.2926L6.77186 30.5076L7.80687 27.3497ZM4.27255 18.8249L9.08689 24.2686L14.5904 12.0723L4.27255 18.8249Z" fill="#B84EFF"/>
</svg>
