<svg width="138" height="48" viewBox="0 0 138 48" fill="none" xmlns="http://www.w3.org/2000/svg">
<path fill-rule="evenodd" clip-rule="evenodd" d="M17.6264 6.5H32.4282L43.8943 25.1661L28.1156 41.115L5.42732 37.0691L0.269592 17.8593L17.6264 6.5ZM18.1538 11.4692L11.3377 26.5742L17.7881 31.9153L26.6127 28.1178L18.1538 11.4692ZM30.4814 26.7692L39.6952 24.0619L32.4969 12.3435L30.4814 26.7692ZM29.8651 9.5H20.5183L27.8492 23.9284L29.8651 9.5ZM36.8446 28.0263L30.0655 30.0182L29.5208 35.4291L36.8446 28.0263ZM26.344 37.0343L26.9265 31.2487L20.8692 33.8554L26.344 37.0343ZM19.5047 36.5321L8.59205 34.5862L10.2395 29.5598L16.6774 34.8906L19.5047 36.5321ZM7.80684 27.3497L5.10315 24.2926L6.77183 30.5076L7.80684 27.3497ZM4.27252 18.8249L9.08685 24.2686L14.5904 12.0723L4.27252 18.8249Z" fill="#B84EFF"/>
<g filter="url(#filter0_d_3202_915)">
<mask id="path-2-outside-1_3202_915" maskUnits="userSpaceOnUse" x="59" y="16" width="75" height="15" fill="black">
<rect fill="white" x="59" y="16" width="75" height="15"/>
<path d="M63.5227 29L60.3409 17.3636H61.7727L64.2045 26.8409H64.3182L66.7955 17.3636H68.3864L70.8636 26.8409H70.9773L73.4091 17.3636H74.8409L71.6591 29H70.2045L67.6364 19.7273H67.5455L64.9773 29H63.5227ZM79.1477 29.1818C78.3598 29.1818 77.6686 28.9943 77.0739 28.6193C76.483 28.2443 76.0208 27.7197 75.6875 27.0455C75.358 26.3712 75.1932 25.5833 75.1932 24.6818C75.1932 23.7727 75.358 22.9792 75.6875 22.3011C76.0208 21.6231 76.483 21.0966 77.0739 20.7216C77.6686 20.3466 78.3598 20.1591 79.1477 20.1591C79.9356 20.1591 80.625 20.3466 81.2159 20.7216C81.8106 21.0966 82.2727 21.6231 82.6023 22.3011C82.9356 22.9792 83.1023 23.7727 83.1023 24.6818C83.1023 25.5833 82.9356 26.3712 82.6023 27.0455C82.2727 27.7197 81.8106 28.2443 81.2159 28.6193C80.625 28.9943 79.9356 29.1818 79.1477 29.1818ZM79.1477 27.9773C79.7462 27.9773 80.2386 27.8239 80.625 27.517C81.0114 27.2102 81.2973 26.8068 81.483 26.3068C81.6686 25.8068 81.7614 25.2652 81.7614 24.6818C81.7614 24.0985 81.6686 23.5549 81.483 23.0511C81.2973 22.5473 81.0114 22.1402 80.625 21.8295C80.2386 21.5189 79.7462 21.3636 79.1477 21.3636C78.5492 21.3636 78.0568 21.5189 77.6705 21.8295C77.2841 22.1402 76.9981 22.5473 76.8125 23.0511C76.6269 23.5549 76.5341 24.0985 76.5341 24.6818C76.5341 25.2652 76.6269 25.8068 76.8125 26.3068C76.9981 26.8068 77.2841 27.2102 77.6705 27.517C78.0568 27.8239 78.5492 27.9773 79.1477 27.9773ZM85.1491 29V20.2727H86.4446V21.5909H86.5355C86.6946 21.1591 86.9825 20.8087 87.3991 20.5398C87.8158 20.2708 88.2855 20.1364 88.8082 20.1364C88.9067 20.1364 89.0298 20.1383 89.1776 20.142C89.3253 20.1458 89.437 20.1515 89.5128 20.1591V21.5227C89.4673 21.5114 89.3632 21.4943 89.2003 21.4716C89.0412 21.4451 88.8726 21.4318 88.6946 21.4318C88.2704 21.4318 87.8916 21.5208 87.5582 21.6989C87.2287 21.8731 86.9673 22.1155 86.7741 22.4261C86.5848 22.733 86.4901 23.0833 86.4901 23.4773V29H85.1491ZM94.1321 29.1818C93.4048 29.1818 92.7628 28.9981 92.206 28.6307C91.6491 28.2595 91.2135 27.7367 90.8991 27.0625C90.5848 26.3845 90.4276 25.5833 90.4276 24.6591C90.4276 23.7424 90.5848 22.947 90.8991 22.2727C91.2135 21.5985 91.651 21.0777 92.2116 20.7102C92.7723 20.3428 93.42 20.1591 94.1548 20.1591C94.723 20.1591 95.1719 20.2538 95.5014 20.4432C95.8348 20.6288 96.0885 20.8409 96.2628 21.0795C96.4408 21.3144 96.5791 21.5076 96.6776 21.6591H96.7912V17.3636H98.1321V29H96.8366V27.6591H96.6776C96.5791 27.8182 96.4389 28.0189 96.2571 28.2614C96.0753 28.5 95.8158 28.714 95.4787 28.9034C95.1416 29.089 94.6927 29.1818 94.1321 29.1818ZM94.3139 27.9773C94.8518 27.9773 95.3063 27.8371 95.6776 27.5568C96.0488 27.2727 96.331 26.8807 96.5241 26.3807C96.7173 25.8769 96.8139 25.2955 96.8139 24.6364C96.8139 23.9848 96.7192 23.4148 96.5298 22.9261C96.3404 22.4337 96.0601 22.0511 95.6889 21.7784C95.3177 21.5019 94.8594 21.3636 94.3139 21.3636C93.7457 21.3636 93.2723 21.5095 92.8935 21.8011C92.5185 22.089 92.2363 22.4811 92.0469 22.9773C91.8613 23.4697 91.7685 24.0227 91.7685 24.6364C91.7685 25.2576 91.8632 25.822 92.0526 26.3295C92.2457 26.8333 92.5298 27.2348 92.9048 27.5341C93.2836 27.8295 93.7533 27.9773 94.3139 27.9773ZM105.183 25.3636H106.729L108.024 27.0682L108.365 27.5227L110.297 30.0909H108.751L107.479 28.3864L107.161 27.9545L105.183 25.3636ZM110.774 23.1818C110.774 24.4091 110.553 25.4697 110.109 26.3636C109.666 27.2576 109.058 27.947 108.286 28.4318C107.513 28.9167 106.63 29.1591 105.638 29.1591C104.645 29.1591 103.763 28.9167 102.99 28.4318C102.217 27.947 101.609 27.2576 101.166 26.3636C100.723 25.4697 100.501 24.4091 100.501 23.1818C100.501 21.9545 100.723 20.8939 101.166 20C101.609 19.1061 102.217 18.4167 102.99 17.9318C103.763 17.447 104.645 17.2045 105.638 17.2045C106.63 17.2045 107.513 17.447 108.286 17.9318C109.058 18.4167 109.666 19.1061 110.109 20C110.553 20.8939 110.774 21.9545 110.774 23.1818ZM109.411 23.1818C109.411 22.1742 109.242 21.3239 108.905 20.6307C108.571 19.9375 108.119 19.4129 107.547 19.0568C106.979 18.7008 106.342 18.5227 105.638 18.5227C104.933 18.5227 104.295 18.7008 103.723 19.0568C103.155 19.4129 102.702 19.9375 102.365 20.6307C102.032 21.3239 101.865 22.1742 101.865 23.1818C101.865 24.1894 102.032 25.0398 102.365 25.733C102.702 26.4261 103.155 26.9508 103.723 27.3068C104.295 27.6629 104.933 27.8409 105.638 27.8409C106.342 27.8409 106.979 27.6629 107.547 27.3068C108.119 26.9508 108.571 26.4261 108.905 25.733C109.242 25.0398 109.411 24.1894 109.411 23.1818ZM118.462 25.4318V20.2727H119.803V29H118.462V27.5227H118.371C118.166 27.9659 117.848 28.3428 117.416 28.6534C116.984 28.9602 116.439 29.1136 115.78 29.1136C115.234 29.1136 114.75 28.9943 114.325 28.7557C113.901 28.5133 113.568 28.1496 113.325 27.6648C113.083 27.1761 112.962 26.5606 112.962 25.8182V20.2727H114.303V25.7273C114.303 26.3636 114.481 26.8712 114.837 27.25C115.196 27.6288 115.655 27.8182 116.212 27.8182C116.545 27.8182 116.884 27.733 117.229 27.5625C117.577 27.392 117.869 27.1307 118.104 26.7784C118.342 26.4261 118.462 25.9773 118.462 25.4318ZM122.259 29V20.2727H123.599V29H122.259ZM122.94 18.8182C122.679 18.8182 122.454 18.7292 122.264 18.5511C122.079 18.3731 121.986 18.1591 121.986 17.9091C121.986 17.6591 122.079 17.4451 122.264 17.267C122.454 17.089 122.679 17 122.94 17C123.202 17 123.425 17.089 123.611 17.267C123.8 17.4451 123.895 17.6591 123.895 17.9091C123.895 18.1591 123.8 18.3731 123.611 18.5511C123.425 18.7292 123.202 18.8182 122.94 18.8182ZM125.805 29V27.9773L130.76 21.6136V21.5227H125.964V20.2727H132.487V21.3409L127.669 27.6591V27.75H132.646V29H125.805Z"/>
</mask>
<path d="M63.5227 29L60.3409 17.3636H61.7727L64.2045 26.8409H64.3182L66.7955 17.3636H68.3864L70.8636 26.8409H70.9773L73.4091 17.3636H74.8409L71.6591 29H70.2045L67.6364 19.7273H67.5455L64.9773 29H63.5227ZM79.1477 29.1818C78.3598 29.1818 77.6686 28.9943 77.0739 28.6193C76.483 28.2443 76.0208 27.7197 75.6875 27.0455C75.358 26.3712 75.1932 25.5833 75.1932 24.6818C75.1932 23.7727 75.358 22.9792 75.6875 22.3011C76.0208 21.6231 76.483 21.0966 77.0739 20.7216C77.6686 20.3466 78.3598 20.1591 79.1477 20.1591C79.9356 20.1591 80.625 20.3466 81.2159 20.7216C81.8106 21.0966 82.2727 21.6231 82.6023 22.3011C82.9356 22.9792 83.1023 23.7727 83.1023 24.6818C83.1023 25.5833 82.9356 26.3712 82.6023 27.0455C82.2727 27.7197 81.8106 28.2443 81.2159 28.6193C80.625 28.9943 79.9356 29.1818 79.1477 29.1818ZM79.1477 27.9773C79.7462 27.9773 80.2386 27.8239 80.625 27.517C81.0114 27.2102 81.2973 26.8068 81.483 26.3068C81.6686 25.8068 81.7614 25.2652 81.7614 24.6818C81.7614 24.0985 81.6686 23.5549 81.483 23.0511C81.2973 22.5473 81.0114 22.1402 80.625 21.8295C80.2386 21.5189 79.7462 21.3636 79.1477 21.3636C78.5492 21.3636 78.0568 21.5189 77.6705 21.8295C77.2841 22.1402 76.9981 22.5473 76.8125 23.0511C76.6269 23.5549 76.5341 24.0985 76.5341 24.6818C76.5341 25.2652 76.6269 25.8068 76.8125 26.3068C76.9981 26.8068 77.2841 27.2102 77.6705 27.517C78.0568 27.8239 78.5492 27.9773 79.1477 27.9773ZM85.1491 29V20.2727H86.4446V21.5909H86.5355C86.6946 21.1591 86.9825 20.8087 87.3991 20.5398C87.8158 20.2708 88.2855 20.1364 88.8082 20.1364C88.9067 20.1364 89.0298 20.1383 89.1776 20.142C89.3253 20.1458 89.437 20.1515 89.5128 20.1591V21.5227C89.4673 21.5114 89.3632 21.4943 89.2003 21.4716C89.0412 21.4451 88.8726 21.4318 88.6946 21.4318C88.2704 21.4318 87.8916 21.5208 87.5582 21.6989C87.2287 21.8731 86.9673 22.1155 86.7741 22.4261C86.5848 22.733 86.4901 23.0833 86.4901 23.4773V29H85.1491ZM94.1321 29.1818C93.4048 29.1818 92.7628 28.9981 92.206 28.6307C91.6491 28.2595 91.2135 27.7367 90.8991 27.0625C90.5848 26.3845 90.4276 25.5833 90.4276 24.6591C90.4276 23.7424 90.5848 22.947 90.8991 22.2727C91.2135 21.5985 91.651 21.0777 92.2116 20.7102C92.7723 20.3428 93.42 20.1591 94.1548 20.1591C94.723 20.1591 95.1719 20.2538 95.5014 20.4432C95.8348 20.6288 96.0885 20.8409 96.2628 21.0795C96.4408 21.3144 96.5791 21.5076 96.6776 21.6591H96.7912V17.3636H98.1321V29H96.8366V27.6591H96.6776C96.5791 27.8182 96.4389 28.0189 96.2571 28.2614C96.0753 28.5 95.8158 28.714 95.4787 28.9034C95.1416 29.089 94.6927 29.1818 94.1321 29.1818ZM94.3139 27.9773C94.8518 27.9773 95.3063 27.8371 95.6776 27.5568C96.0488 27.2727 96.331 26.8807 96.5241 26.3807C96.7173 25.8769 96.8139 25.2955 96.8139 24.6364C96.8139 23.9848 96.7192 23.4148 96.5298 22.9261C96.3404 22.4337 96.0601 22.0511 95.6889 21.7784C95.3177 21.5019 94.8594 21.3636 94.3139 21.3636C93.7457 21.3636 93.2723 21.5095 92.8935 21.8011C92.5185 22.089 92.2363 22.4811 92.0469 22.9773C91.8613 23.4697 91.7685 24.0227 91.7685 24.6364C91.7685 25.2576 91.8632 25.822 92.0526 26.3295C92.2457 26.8333 92.5298 27.2348 92.9048 27.5341C93.2836 27.8295 93.7533 27.9773 94.3139 27.9773ZM105.183 25.3636H106.729L108.024 27.0682L108.365 27.5227L110.297 30.0909H108.751L107.479 28.3864L107.161 27.9545L105.183 25.3636ZM110.774 23.1818C110.774 24.4091 110.553 25.4697 110.109 26.3636C109.666 27.2576 109.058 27.947 108.286 28.4318C107.513 28.9167 106.63 29.1591 105.638 29.1591C104.645 29.1591 103.763 28.9167 102.99 28.4318C102.217 27.947 101.609 27.2576 101.166 26.3636C100.723 25.4697 100.501 24.4091 100.501 23.1818C100.501 21.9545 100.723 20.8939 101.166 20C101.609 19.1061 102.217 18.4167 102.99 17.9318C103.763 17.447 104.645 17.2045 105.638 17.2045C106.63 17.2045 107.513 17.447 108.286 17.9318C109.058 18.4167 109.666 19.1061 110.109 20C110.553 20.8939 110.774 21.9545 110.774 23.1818ZM109.411 23.1818C109.411 22.1742 109.242 21.3239 108.905 20.6307C108.571 19.9375 108.119 19.4129 107.547 19.0568C106.979 18.7008 106.342 18.5227 105.638 18.5227C104.933 18.5227 104.295 18.7008 103.723 19.0568C103.155 19.4129 102.702 19.9375 102.365 20.6307C102.032 21.3239 101.865 22.1742 101.865 23.1818C101.865 24.1894 102.032 25.0398 102.365 25.733C102.702 26.4261 103.155 26.9508 103.723 27.3068C104.295 27.6629 104.933 27.8409 105.638 27.8409C106.342 27.8409 106.979 27.6629 107.547 27.3068C108.119 26.9508 108.571 26.4261 108.905 25.733C109.242 25.0398 109.411 24.1894 109.411 23.1818ZM118.462 25.4318V20.2727H119.803V29H118.462V27.5227H118.371C118.166 27.9659 117.848 28.3428 117.416 28.6534C116.984 28.9602 116.439 29.1136 115.78 29.1136C115.234 29.1136 114.75 28.9943 114.325 28.7557C113.901 28.5133 113.568 28.1496 113.325 27.6648C113.083 27.1761 112.962 26.5606 112.962 25.8182V20.2727H114.303V25.7273C114.303 26.3636 114.481 26.8712 114.837 27.25C115.196 27.6288 115.655 27.8182 116.212 27.8182C116.545 27.8182 116.884 27.733 117.229 27.5625C117.577 27.392 117.869 27.1307 118.104 26.7784C118.342 26.4261 118.462 25.9773 118.462 25.4318ZM122.259 29V20.2727H123.599V29H122.259ZM122.94 18.8182C122.679 18.8182 122.454 18.7292 122.264 18.5511C122.079 18.3731 121.986 18.1591 121.986 17.9091C121.986 17.6591 122.079 17.4451 122.264 17.267C122.454 17.089 122.679 17 122.94 17C123.202 17 123.425 17.089 123.611 17.267C123.8 17.4451 123.895 17.6591 123.895 17.9091C123.895 18.1591 123.8 18.3731 123.611 18.5511C123.425 18.7292 123.202 18.8182 122.94 18.8182ZM125.805 29V27.9773L130.76 21.6136V21.5227H125.964V20.2727H132.487V21.3409L127.669 27.6591V27.75H132.646V29H125.805Z" fill="black"/>
<path d="M63.5227 29L62.7511 29.211L62.9121 29.8H63.5227V29ZM60.3409 17.3636V16.5636H59.2928L59.5692 17.5746L60.3409 17.3636ZM61.7727 17.3636L62.5476 17.1648L62.3934 16.5636H61.7727V17.3636ZM64.2045 26.8409L63.4296 27.0397L63.5839 27.6409H64.2045V26.8409ZM64.3182 26.8409V27.6409H64.9359L65.0922 27.0432L64.3182 26.8409ZM66.7955 17.3636V16.5636H66.1777L66.0215 17.1613L66.7955 17.3636ZM68.3864 17.3636L69.1604 17.1613L69.0041 16.5636H68.3864V17.3636ZM70.8636 26.8409L70.0896 27.0432L70.2459 27.6409H70.8636V26.8409ZM70.9773 26.8409V27.6409H71.5979L71.7522 27.0397L70.9773 26.8409ZM73.4091 17.3636V16.5636H72.7885L72.6342 17.1648L73.4091 17.3636ZM74.8409 17.3636L75.6126 17.5746L75.889 16.5636H74.8409V17.3636ZM71.6591 29V29.8H72.2697L72.4308 29.211L71.6591 29ZM70.2045 29L69.4336 29.2135L69.596 29.8H70.2045V29ZM67.6364 19.7273L68.4073 19.5137L68.2449 18.9273H67.6364V19.7273ZM67.5455 19.7273V18.9273H66.9369L66.7745 19.5137L67.5455 19.7273ZM64.9773 29V29.8H65.5858L65.7482 29.2135L64.9773 29ZM63.5227 29L64.2944 28.789L61.1126 17.1526L60.3409 17.3636L59.5692 17.5746L62.7511 29.211L63.5227 29ZM60.3409 17.3636V18.1636H61.7727V17.3636V16.5636H60.3409V17.3636ZM61.7727 17.3636L60.9978 17.5625L63.4296 27.0397L64.2045 26.8409L64.9794 26.6421L62.5476 17.1648L61.7727 17.3636ZM64.2045 26.8409V27.6409H64.3182V26.8409V26.0409H64.2045V26.8409ZM64.3182 26.8409L65.0922 27.0432L67.5695 17.566L66.7955 17.3636L66.0215 17.1613L63.5442 26.6386L64.3182 26.8409ZM66.7955 17.3636V18.1636H68.3864V17.3636V16.5636H66.7955V17.3636ZM68.3864 17.3636L67.6124 17.566L70.0896 27.0432L70.8636 26.8409L71.6376 26.6386L69.1604 17.1613L68.3864 17.3636ZM70.8636 26.8409V27.6409H70.9773V26.8409V26.0409H70.8636V26.8409ZM70.9773 26.8409L71.7522 27.0397L74.184 17.5625L73.4091 17.3636L72.6342 17.1648L70.2024 26.6421L70.9773 26.8409ZM73.4091 17.3636V18.1636H74.8409V17.3636V16.5636H73.4091V17.3636ZM74.8409 17.3636L74.0692 17.1526L70.8874 28.789L71.6591 29L72.4308 29.211L75.6126 17.5746L74.8409 17.3636ZM71.6591 29V28.2H70.2045V29V29.8H71.6591V29ZM70.2045 29L70.9755 28.7865L68.4073 19.5137L67.6364 19.7273L66.8654 19.9408L69.4336 29.2135L70.2045 29ZM67.6364 19.7273V18.9273H67.5455V19.7273V20.5273H67.6364V19.7273ZM67.5455 19.7273L66.7745 19.5137L64.2063 28.7865L64.9773 29L65.7482 29.2135L68.3164 19.9408L67.5455 19.7273ZM64.9773 29V28.2H63.5227V29V29.8H64.9773V29ZM77.0739 28.6193L76.6452 29.2948L76.6472 29.296L77.0739 28.6193ZM75.6875 27.0455L74.9687 27.3968L74.9704 27.4L75.6875 27.0455ZM75.6875 22.3011L74.9696 21.9482L74.968 21.9514L75.6875 22.3011ZM77.0739 20.7216L76.6472 20.0449L76.6452 20.0461L77.0739 20.7216ZM81.2159 20.7216L80.7872 21.3971L80.7892 21.3983L81.2159 20.7216ZM82.6023 22.3011L81.8827 22.6508L81.8843 22.6541L82.6023 22.3011ZM82.6023 27.0455L81.8851 26.6909L81.8835 26.6942L82.6023 27.0455ZM81.2159 28.6193L80.7892 27.9426L80.7873 27.9439L81.2159 28.6193ZM80.625 27.517L80.1275 26.8906L80.1275 26.8906L80.625 27.517ZM81.483 26.3068L82.2329 26.5852L82.2329 26.5852L81.483 26.3068ZM81.483 23.0511L82.2336 22.7746L82.2336 22.7746L81.483 23.0511ZM80.625 21.8295L81.1262 21.206L81.1262 21.206L80.625 21.8295ZM77.6705 21.8295L77.1692 21.206L77.1692 21.206L77.6705 21.8295ZM76.8125 23.0511L76.0618 22.7746L76.0618 22.7746L76.8125 23.0511ZM76.8125 26.3068L76.0625 26.5852L76.0625 26.5852L76.8125 26.3068ZM77.6705 27.517L78.168 26.8906L78.168 26.8906L77.6705 27.517ZM79.1477 29.1818V28.3818C78.4921 28.3818 77.9525 28.2276 77.5006 27.9426L77.0739 28.6193L76.6472 29.296C77.3846 29.761 78.2276 29.9818 79.1477 29.9818V29.1818ZM77.0739 28.6193L77.5025 27.9439C77.0446 27.6533 76.6781 27.244 76.4046 26.6909L75.6875 27.0455L74.9704 27.4C75.3636 28.1954 75.9213 28.8354 76.6452 29.2948L77.0739 28.6193ZM75.6875 27.0455L76.4062 26.6942C76.1399 26.1492 75.9932 25.4858 75.9932 24.6818H75.1932H74.3932C74.3932 25.6809 74.576 26.5933 74.9688 27.3968L75.6875 27.0455ZM75.1932 24.6818H75.9932C75.9932 23.8693 76.1402 23.1997 76.407 22.6508L75.6875 22.3011L74.968 21.9514C74.5757 22.7586 74.3932 23.6762 74.3932 24.6818H75.1932ZM75.6875 22.3011L76.4054 22.6541C76.6792 22.0972 77.0457 21.6869 77.5025 21.3971L77.0739 20.7216L76.6452 20.0461C75.9202 20.5062 75.3625 21.149 74.9696 21.9482L75.6875 22.3011ZM77.0739 20.7216L77.5006 21.3983C77.9525 21.1133 78.4921 20.9591 79.1477 20.9591V20.1591V19.3591C78.2276 19.3591 77.3846 19.5799 76.6472 20.0449L77.0739 20.7216ZM79.1477 20.1591V20.9591C79.8035 20.9591 80.3402 21.1133 80.7873 21.3971L81.2159 20.7216L81.6446 20.0461C80.9098 19.5799 80.0678 19.3591 79.1477 19.3591V20.1591ZM81.2159 20.7216L80.7892 21.3983C81.2485 21.6879 81.6135 22.0969 81.8828 22.6508L82.6023 22.3011L83.3218 21.9514C82.9319 21.1493 82.3727 20.5052 81.6426 20.0449L81.2159 20.7216ZM82.6023 22.3011L81.8843 22.6541C82.1538 23.2022 82.3023 23.8705 82.3023 24.6818H83.1023H83.9023C83.9023 23.6749 83.7174 22.7561 83.3202 21.9482L82.6023 22.3011ZM83.1023 24.6818H82.3023C82.3023 25.4845 82.1542 26.1467 81.8851 26.6909L82.6023 27.0455L83.3194 27.4C83.717 26.5957 83.9023 25.6821 83.9023 24.6818H83.1023ZM82.6023 27.0455L81.8835 26.6942C81.6146 27.2443 81.2497 27.6523 80.7892 27.9426L81.2159 28.6193L81.6426 29.296C82.3715 28.8364 82.9308 28.1951 83.321 27.3968L82.6023 27.0455ZM81.2159 28.6193L80.7873 27.9439C80.3402 28.2276 79.8035 28.3818 79.1477 28.3818V29.1818V29.9818C80.0678 29.9818 80.9098 29.7611 81.6446 29.2948L81.2159 28.6193ZM79.1477 27.9773V28.7773C79.8871 28.7773 80.5664 28.5851 81.1225 28.1435L80.625 27.517L80.1275 26.8906C79.9109 27.0626 79.6053 27.1773 79.1477 27.1773V27.9773ZM80.625 27.517L81.1225 28.1435C81.6325 27.7386 82.0008 27.2106 82.2329 26.5852L81.483 26.3068L80.733 26.0284C80.5939 26.403 80.3903 26.6819 80.1275 26.8906L80.625 27.517ZM81.483 26.3068L82.2329 26.5852C82.4546 25.9881 82.5614 25.3513 82.5614 24.6818H81.7614H80.9614C80.9614 25.179 80.8825 25.6255 80.733 26.0284L81.483 26.3068ZM81.7614 24.6818H82.5614C82.5614 24.0123 82.4546 23.3743 82.2336 22.7746L81.483 23.0511L80.7323 23.3277C80.8825 23.7356 80.9614 24.1847 80.9614 24.6818H81.7614ZM81.483 23.0511L82.2336 22.7746C82.0022 22.1464 81.635 21.615 81.1262 21.206L80.625 21.8295L80.1238 22.453C80.3877 22.6653 80.5925 22.9483 80.7323 23.3277L81.483 23.0511ZM80.625 21.8295L81.1262 21.206C80.57 20.7589 79.8894 20.5636 79.1477 20.5636V21.3636V22.1636C79.603 22.1636 79.9072 22.279 80.1238 22.453L80.625 21.8295ZM79.1477 21.3636V20.5636C78.4061 20.5636 77.7254 20.7589 77.1692 21.206L77.6705 21.8295L78.1717 22.453C78.3882 22.279 78.6924 22.1636 79.1477 22.1636V21.3636ZM77.6705 21.8295L77.1692 21.206C76.6604 21.615 76.2933 22.1464 76.0618 22.7746L76.8125 23.0511L77.5632 23.3277C77.7029 22.9483 77.9077 22.6653 78.1717 22.453L77.6705 21.8295ZM76.8125 23.0511L76.0618 22.7746C75.8409 23.3743 75.7341 24.0123 75.7341 24.6818H76.5341H77.3341C77.3341 24.1847 77.4129 23.7356 77.5632 23.3277L76.8125 23.0511ZM76.5341 24.6818H75.7341C75.7341 25.3513 75.8409 25.9881 76.0625 26.5852L76.8125 26.3068L77.5625 26.0284C77.4129 25.6255 77.3341 25.179 77.3341 24.6818H76.5341ZM76.8125 26.3068L76.0625 26.5852C76.2947 27.2106 76.663 27.7386 77.1729 28.1435L77.6705 27.517L78.168 26.8906C77.9052 26.6819 77.7015 26.403 77.5625 26.0284L76.8125 26.3068ZM77.6705 27.517L77.1729 28.1435C77.7291 28.5851 78.4083 28.7773 79.1477 28.7773V27.9773V27.1773C78.6902 27.1773 78.3846 27.0626 78.168 26.8906L77.6705 27.517ZM85.1491 29H84.3491V29.8H85.1491V29ZM85.1491 20.2727V19.4727H84.3491V20.2727H85.1491ZM86.4446 20.2727H87.2446V19.4727H86.4446V20.2727ZM86.4446 21.5909H85.6446V22.3909H86.4446V21.5909ZM86.5355 21.5909V22.3909H87.0933L87.2862 21.8675L86.5355 21.5909ZM87.3991 20.5398L86.9653 19.8676L86.9653 19.8676L87.3991 20.5398ZM89.5128 20.1591H90.3128V19.4351L89.5924 19.3631L89.5128 20.1591ZM89.5128 21.5227L89.3188 22.2988L90.3128 22.5473V21.5227H89.5128ZM89.2003 21.4716L89.0688 22.2607L89.0792 22.2624L89.0897 22.2639L89.2003 21.4716ZM87.5582 21.6989L87.9322 22.4061L87.9351 22.4045L87.5582 21.6989ZM86.7741 22.4261L86.0948 22.0036L86.0934 22.0059L86.7741 22.4261ZM86.4901 29V29.8H87.2901V29H86.4901ZM85.1491 29H85.9491V20.2727H85.1491H84.3491V29H85.1491ZM85.1491 20.2727V21.0727H86.4446V20.2727V19.4727H85.1491V20.2727ZM86.4446 20.2727H85.6446V21.5909H86.4446H87.2446V20.2727H86.4446ZM86.4446 21.5909V22.3909H86.5355V21.5909V20.7909H86.4446V21.5909ZM86.5355 21.5909L87.2862 21.8675C87.3806 21.6113 87.55 21.3946 87.833 21.2119L87.3991 20.5398L86.9653 19.8676C86.415 20.2229 86.0086 20.7069 85.7848 21.3143L86.5355 21.5909ZM87.3991 20.5398L87.833 21.2119C88.1132 21.0311 88.4307 20.9364 88.8082 20.9364V20.1364V19.3364C88.1403 19.3364 87.5184 19.5106 86.9653 19.8676L87.3991 20.5398ZM88.8082 20.1364V20.9364C88.8974 20.9364 89.0131 20.9381 89.1571 20.9418L89.1776 20.142L89.1981 19.3423C89.0465 19.3384 88.916 19.3364 88.8082 19.3364V20.1364ZM89.1776 20.142L89.1571 20.9418C89.2997 20.9454 89.3876 20.9506 89.4332 20.9551L89.5128 20.1591L89.5924 19.3631C89.4864 19.3525 89.3509 19.3462 89.1981 19.3423L89.1776 20.142ZM89.5128 20.1591H88.7128V21.5227H89.5128H90.3128V20.1591H89.5128ZM89.5128 21.5227L89.7068 20.7466C89.6117 20.7228 89.4618 20.7003 89.3108 20.6793L89.2003 21.4716L89.0897 22.2639C89.168 22.2748 89.2279 22.2838 89.2714 22.2909C89.2931 22.2945 89.3084 22.2972 89.3185 22.2991C89.3301 22.3013 89.3285 22.3013 89.3188 22.2988L89.5128 21.5227ZM89.2003 21.4716L89.3318 20.6825C89.125 20.648 88.9122 20.6318 88.6946 20.6318V21.4318V22.2318C88.833 22.2318 88.9573 22.2421 89.0688 22.2607L89.2003 21.4716ZM88.6946 21.4318V20.6318C88.1552 20.6318 87.6443 20.746 87.1814 20.9932L87.5582 21.6989L87.9351 22.4045C88.1389 22.2957 88.3855 22.2318 88.6946 22.2318V21.4318ZM87.5582 21.6989L87.1843 20.9916C86.7321 21.2307 86.3643 21.5704 86.0948 22.0036L86.7741 22.4261L87.4535 22.8486C87.5704 22.6607 87.7253 22.5155 87.9322 22.4061L87.5582 21.6989ZM86.7741 22.4261L86.0934 22.0059C85.8189 22.4506 85.6901 22.9491 85.6901 23.4773H86.4901H87.2901C87.2901 23.2175 87.3506 23.0153 87.4549 22.8464L86.7741 22.4261ZM86.4901 23.4773H85.6901V29H86.4901H87.2901V23.4773H86.4901ZM86.4901 29V28.2H85.1491V29V29.8H86.4901V29ZM92.206 28.6307L91.7622 29.2963L91.7654 29.2984L92.206 28.6307ZM90.8991 27.0625L90.1734 27.399L90.1741 27.4006L90.8991 27.0625ZM90.8991 22.2727L90.1741 21.9346L90.1741 21.9346L90.8991 22.2727ZM92.2116 20.7102L91.7731 20.0411L91.7731 20.0411L92.2116 20.7102ZM95.5014 20.4432L95.1028 21.1369L95.1122 21.1421L95.5014 20.4432ZM96.2628 21.0795L95.6167 21.5513L95.6209 21.5571L95.6253 21.5628L96.2628 21.0795ZM96.6776 21.6591L96.0068 22.0951L96.2434 22.4591H96.6776V21.6591ZM96.7912 21.6591V22.4591H97.5912V21.6591H96.7912ZM96.7912 17.3636V16.5636H95.9912V17.3636H96.7912ZM98.1321 17.3636H98.9321V16.5636H98.1321V17.3636ZM98.1321 29V29.8H98.9321V29H98.1321ZM96.8366 29H96.0366V29.8H96.8366V29ZM96.8366 27.6591H97.6366V26.8591H96.8366V27.6591ZM96.6776 27.6591V26.8591H96.2319L95.9973 27.238L96.6776 27.6591ZM96.2571 28.2614L96.8935 28.7462L96.8971 28.7414L96.2571 28.2614ZM95.4787 28.9034L95.8645 29.6042L95.8705 29.6009L95.4787 28.9034ZM95.6776 27.5568L96.1596 28.1953L96.1638 28.1921L95.6776 27.5568ZM96.5241 26.3807L97.2704 26.669L97.2711 26.6671L96.5241 26.3807ZM96.5298 22.9261L95.7832 23.2133L95.7839 23.2153L96.5298 22.9261ZM95.6889 21.7784L95.211 22.42L95.2153 22.4231L95.6889 21.7784ZM92.8935 21.8011L93.3806 22.4357L93.3815 22.435L92.8935 21.8011ZM92.0469 22.9773L91.2995 22.692L91.2983 22.6951L92.0469 22.9773ZM92.0526 26.3295L91.303 26.6092L91.3056 26.616L92.0526 26.3295ZM92.9048 27.5341L92.4058 28.1594L92.4128 28.1649L92.9048 27.5341ZM94.1321 29.1818V28.3818C93.5467 28.3818 93.0609 28.2363 92.6466 27.963L92.206 28.6307L91.7654 29.2984C92.4647 29.7599 93.2629 29.9818 94.1321 29.9818V29.1818ZM92.206 28.6307L92.6497 27.965C92.2282 27.684 91.8837 27.281 91.6242 26.7244L90.8991 27.0625L90.1741 27.4006C90.5433 28.1925 91.0701 28.8349 91.7622 29.2963L92.206 28.6307ZM90.8991 27.0625L91.6249 26.726C91.3696 26.1753 91.2276 25.4939 91.2276 24.6591H90.4276H89.6276C89.6276 25.6727 89.7999 26.5937 90.1734 27.399L90.8991 27.0625ZM90.4276 24.6591H91.2276C91.2276 23.8327 91.3693 23.1575 91.6242 22.6108L90.8991 22.2727L90.1741 21.9346C89.8002 22.7364 89.6276 23.6521 89.6276 24.6591H90.4276ZM90.8991 22.2727L91.6242 22.6108C91.8828 22.0561 92.2274 21.6564 92.6502 21.3793L92.2116 20.7102L91.7731 20.0411C91.0747 20.4989 90.5442 21.1408 90.1741 21.9346L90.8991 22.2727ZM92.2116 20.7102L92.6502 21.3793C93.068 21.1055 93.5602 20.9591 94.1548 20.9591V20.1591V19.3591C93.2798 19.3591 92.4765 19.5801 91.7731 20.0411L92.2116 20.7102ZM94.1548 20.1591V20.9591C94.6473 20.9591 94.9401 21.0433 95.1028 21.1368L95.5014 20.4432L95.9 19.7496C95.4036 19.4643 94.7988 19.3591 94.1548 19.3591V20.1591ZM95.5014 20.4432L95.1122 21.1421C95.3728 21.2872 95.5275 21.4291 95.6167 21.5513L96.2628 21.0795L96.9089 20.6078C96.6496 20.2527 96.2967 19.9704 95.8906 19.7442L95.5014 20.4432ZM96.2628 21.0795L95.6253 21.5628C95.7979 21.7906 95.9233 21.9666 96.0068 22.0951L96.6776 21.6591L97.3483 21.2231C97.2349 21.0486 97.0837 20.8382 96.9003 20.5963L96.2628 21.0795ZM96.6776 21.6591V22.4591H96.7912V21.6591V20.8591H96.6776V21.6591ZM96.7912 21.6591H97.5912V17.3636H96.7912H95.9912V21.6591H96.7912ZM96.7912 17.3636V18.1636H98.1321V17.3636V16.5636H96.7912V17.3636ZM98.1321 17.3636H97.3321V29H98.1321H98.9321V17.3636H98.1321ZM98.1321 29V28.2H96.8366V29V29.8H98.1321V29ZM96.8366 29H97.6366V27.6591H96.8366H96.0366V29H96.8366ZM96.8366 27.6591V26.8591H96.6776V27.6591V28.4591H96.8366V27.6591ZM96.6776 27.6591L95.9973 27.238C95.9166 27.3684 95.7922 27.5479 95.6171 27.7814L96.2571 28.2614L96.8971 28.7414C97.0856 28.49 97.2415 28.2679 97.3578 28.0802L96.6776 27.6591ZM96.2571 28.2614L95.6208 27.7765C95.5212 27.9072 95.3552 28.0552 95.0869 28.2059L95.4787 28.9034L95.8705 29.6009C96.2765 29.3728 96.6293 29.0928 96.8934 28.7462L96.2571 28.2614ZM95.4787 28.9034L95.0929 28.2026C94.9157 28.3001 94.6153 28.3818 94.1321 28.3818V29.1818V29.9818C94.7702 29.9818 95.3674 29.8779 95.8645 29.6042L95.4787 28.9034ZM94.3139 27.9773V28.7773C94.9975 28.7773 95.6286 28.5963 96.1596 28.1953L95.6776 27.5568L95.1955 26.9184C94.9841 27.078 94.7061 27.1773 94.3139 27.1773V27.9773ZM95.6776 27.5568L96.1638 28.1921C96.6683 27.806 97.0321 27.2858 97.2704 26.669L96.5241 26.3807L95.7779 26.0924C95.6299 26.4755 95.4292 26.7395 95.1914 26.9215L95.6776 27.5568ZM96.5241 26.3807L97.2711 26.6671C97.5062 26.0541 97.6139 25.3723 97.6139 24.6364H96.8139H96.0139C96.0139 25.2186 95.9285 25.6997 95.7772 26.0943L96.5241 26.3807ZM96.8139 24.6364H97.6139C97.6139 23.9092 97.5084 23.2373 97.2758 22.637L96.5298 22.9261L95.7839 23.2153C95.93 23.5923 96.0139 24.0605 96.0139 24.6364H96.8139ZM96.5298 22.9261L97.2765 22.639C97.0404 22.025 96.6743 21.5097 96.1626 21.1337L95.6889 21.7784L95.2153 22.4231C95.446 22.5926 95.6405 22.8424 95.7832 23.2133L96.5298 22.9261ZM95.6889 21.7784L96.1668 21.1368C95.6341 20.74 94.9998 20.5636 94.3139 20.5636V21.3636V22.1636C94.7189 22.1636 95.0014 22.2638 95.211 22.42L95.6889 21.7784ZM94.3139 21.3636V20.5636C93.6036 20.5636 92.9491 20.7486 92.4054 21.1673L92.8935 21.8011L93.3815 22.435C93.5954 22.2703 93.8879 22.1636 94.3139 22.1636V21.3636ZM92.8935 21.8011L92.4063 21.1666C91.8999 21.5553 91.5349 22.0751 91.2995 22.692L92.0469 22.9773L92.7943 23.2625C92.9376 22.8871 93.1371 22.6227 93.3806 22.4357L92.8935 21.8011ZM92.0469 22.9773L91.2983 22.6951C91.0735 23.2914 90.9685 23.9421 90.9685 24.6364H91.7685H92.5685C92.5685 24.1034 92.649 23.648 92.7955 23.2594L92.0469 22.9773ZM91.7685 24.6364H90.9685C90.9685 25.3392 91.0757 26.0001 91.303 26.6092L92.0526 26.3295L92.8021 26.0499C92.6506 25.6439 92.5685 25.1759 92.5685 24.6364H91.7685ZM92.0526 26.3295L91.3056 26.616C91.5433 27.2358 91.9061 27.7606 92.4058 28.1594L92.9048 27.5341L93.4038 26.9088C93.1536 26.7091 92.9482 26.4308 92.7995 26.0431L92.0526 26.3295ZM92.9048 27.5341L92.4128 28.1649C92.9548 28.5877 93.6061 28.7773 94.3139 28.7773V27.9773V27.1773C93.9006 27.1773 93.6124 27.0714 93.3969 26.9033L92.9048 27.5341ZM105.183 25.3636V24.5636H103.566L104.547 25.849L105.183 25.3636ZM106.729 25.3636L107.366 24.8796L107.126 24.5636H106.729V25.3636ZM108.024 27.0682L108.664 26.5882L108.661 26.5841L108.024 27.0682ZM108.365 27.5227L107.725 28.0027L107.726 28.0036L108.365 27.5227ZM110.297 30.0909V30.8909H111.9L110.936 29.61L110.297 30.0909ZM108.751 30.0909L108.11 30.5695L108.35 30.8909H108.751V30.0909ZM107.479 28.3864L106.835 28.8609L106.838 28.865L107.479 28.3864ZM107.161 27.9545L107.805 27.4799L107.796 27.4692L107.161 27.9545ZM110.109 26.3636L109.393 26.0083L109.393 26.0083L110.109 26.3636ZM108.286 28.4318L108.711 29.1095L108.711 29.1095L108.286 28.4318ZM102.99 28.4318L102.565 29.1095L102.565 29.1095L102.99 28.4318ZM101.166 26.3636L101.883 26.0083L101.883 26.0083L101.166 26.3636ZM101.166 20L100.449 19.6447L101.166 20ZM108.286 17.9318L108.711 17.2542L108.711 17.2542L108.286 17.9318ZM110.109 20L109.393 20.3553L109.393 20.3553L110.109 20ZM108.905 20.6307L108.184 20.9774L108.185 20.9806L108.905 20.6307ZM107.547 19.0568L107.122 19.7347L107.124 19.736L107.547 19.0568ZM103.723 19.0568L103.3 18.3777L103.298 18.3789L103.723 19.0568ZM102.365 20.6307L101.646 20.2808L101.644 20.284L102.365 20.6307ZM102.365 25.733L101.644 26.0797L101.646 26.0828L102.365 25.733ZM103.723 27.3068L103.298 27.9847L103.3 27.986L103.723 27.3068ZM107.547 27.3068L107.124 26.6277L107.122 26.6289L107.547 27.3068ZM108.905 25.733L108.185 25.3831L108.184 25.3863L108.905 25.733ZM105.183 25.3636V26.1636H106.729V25.3636V24.5636H105.183V25.3636ZM106.729 25.3636L106.092 25.8477L107.387 27.5522L108.024 27.0682L108.661 26.5841L107.366 24.8796L106.729 25.3636ZM108.024 27.0682L107.384 27.5482L107.725 28.0027L108.365 27.5227L109.005 27.0427L108.664 26.5882L108.024 27.0682ZM108.365 27.5227L107.726 28.0036L109.658 30.5718L110.297 30.0909L110.936 29.61L109.004 27.0418L108.365 27.5227ZM110.297 30.0909V29.2909H108.751V30.0909V30.8909H110.297V30.0909ZM108.751 30.0909L109.392 29.6123L108.12 27.9077L107.479 28.3864L106.838 28.865L108.11 30.5695L108.751 30.0909ZM107.479 28.3864L108.123 27.9118L107.805 27.48L107.161 27.9545L106.516 28.4291L106.835 28.8609L107.479 28.3864ZM107.161 27.9545L107.796 27.4692L105.819 24.8783L105.183 25.3636L104.547 25.849L106.525 28.4399L107.161 27.9545ZM110.774 23.1818H109.974C109.974 24.3136 109.77 25.2473 109.393 26.0083L110.109 26.3636L110.826 26.719C111.335 25.6921 111.574 24.5045 111.574 23.1818H110.774ZM110.109 26.3636L109.393 26.0083C109.009 26.7828 108.496 27.3551 107.86 27.7542L108.286 28.4318L108.711 29.1095C109.62 28.5389 110.324 27.7324 110.826 26.719L110.109 26.3636ZM108.286 28.4318L107.86 27.7542C107.226 28.1521 106.494 28.3591 105.638 28.3591V29.1591V29.9591C106.767 29.9591 107.799 29.6813 108.711 29.1095L108.286 28.4318ZM105.638 29.1591V28.3591C104.782 28.3591 104.049 28.1521 103.415 27.7542L102.99 28.4318L102.565 29.1095C103.476 29.6813 104.509 29.9591 105.638 29.9591V29.1591ZM102.99 28.4318L103.415 27.7542C102.779 27.3551 102.267 26.7828 101.883 26.0083L101.166 26.3636L100.449 26.719C100.952 27.7324 101.655 28.5389 102.565 29.1095L102.99 28.4318ZM101.166 26.3636L101.883 26.0083C101.506 25.2473 101.301 24.3136 101.301 23.1818H100.501H99.7014C99.7014 24.5045 99.9404 25.6921 100.449 26.719L101.166 26.3636ZM100.501 23.1818H101.301C101.301 22.05 101.506 21.1163 101.883 20.3553L101.166 20L100.449 19.6447C99.9404 20.6715 99.7014 21.8591 99.7014 23.1818H100.501ZM101.166 20L101.883 20.3553C102.267 19.5809 102.779 19.0086 103.415 18.6095L102.99 17.9318L102.565 17.2542C101.655 17.8248 100.952 18.6313 100.449 19.6447L101.166 20ZM102.99 17.9318L103.415 18.6095C104.049 18.2116 104.782 18.0045 105.638 18.0045V17.2045V16.4045C104.509 16.4045 103.476 16.6824 102.565 17.2542L102.99 17.9318ZM105.638 17.2045V18.0045C106.494 18.0045 107.226 18.2116 107.86 18.6095L108.286 17.9318L108.711 17.2542C107.799 16.6824 106.767 16.4045 105.638 16.4045V17.2045ZM108.286 17.9318L107.86 18.6095C108.496 19.0086 109.009 19.5809 109.393 20.3553L110.109 20L110.826 19.6447C110.324 18.6313 109.62 17.8248 108.711 17.2542L108.286 17.9318ZM110.109 20L109.393 20.3553C109.77 21.1163 109.974 22.05 109.974 23.1818H110.774H111.574C111.574 21.8591 111.335 20.6715 110.826 19.6447L110.109 20ZM109.411 23.1818H110.211C110.211 22.0888 110.028 21.1112 109.624 20.2808L108.905 20.6307L108.185 20.9806C108.456 21.5366 108.611 22.2597 108.611 23.1818H109.411ZM108.905 20.6307L109.626 20.284C109.236 19.4738 108.688 18.8249 107.97 18.3777L107.547 19.0568L107.124 19.736C107.55 20.0009 107.907 20.4012 108.184 20.9774L108.905 20.6307ZM107.547 19.0568L107.972 18.3789C107.27 17.9389 106.485 17.7227 105.638 17.7227V18.5227V19.3227C106.2 19.3227 106.688 19.4626 107.122 19.7347L107.547 19.0568ZM105.638 18.5227V17.7227C104.791 17.7227 104.005 17.9389 103.3 18.3777L103.723 19.0568L104.146 19.736C104.585 19.4626 105.076 19.3227 105.638 19.3227V18.5227ZM103.723 19.0568L103.298 18.3789C102.585 18.8259 102.038 19.4734 101.646 20.2808L102.365 20.6307L103.084 20.9806C103.366 20.4016 103.725 19.9998 104.148 19.7347L103.723 19.0568ZM102.365 20.6307L101.644 20.284C101.245 21.1135 101.065 22.0899 101.065 23.1818H101.865H102.665C102.665 22.2586 102.818 21.5343 103.086 20.9774L102.365 20.6307ZM101.865 23.1818H101.065C101.065 24.2737 101.245 25.2502 101.644 26.0797L102.365 25.733L103.086 25.3863C102.818 24.8294 102.665 24.1051 102.665 23.1818H101.865ZM102.365 25.733L101.646 26.0828C102.038 26.8902 102.585 27.5377 103.298 27.9847L103.723 27.3068L104.148 26.6289C103.725 26.3638 103.366 25.9621 103.084 25.3831L102.365 25.733ZM103.723 27.3068L103.3 27.986C104.005 28.4247 104.791 28.6409 105.638 28.6409V27.8409V27.0409C105.076 27.0409 104.585 26.901 104.146 26.6277L103.723 27.3068ZM105.638 27.8409V28.6409C106.485 28.6409 107.27 28.4247 107.972 27.9847L107.547 27.3068L107.122 26.6289C106.688 26.9011 106.2 27.0409 105.638 27.0409V27.8409ZM107.547 27.3068L107.97 27.986C108.688 27.5387 109.236 26.8898 109.626 26.0797L108.905 25.733L108.184 25.3863C107.907 25.9624 107.55 26.3628 107.124 26.6277L107.547 27.3068ZM108.905 25.733L109.624 26.0828C110.028 25.2525 110.211 24.2748 110.211 23.1818H109.411H108.611C108.611 24.1039 108.456 24.8271 108.185 25.3831L108.905 25.733ZM118.462 20.2727V19.4727H117.662V20.2727H118.462ZM119.803 20.2727H120.603V19.4727H119.803V20.2727ZM119.803 29V29.8H120.603V29H119.803ZM118.462 29H117.662V29.8H118.462V29ZM118.462 27.5227H119.262V26.7227H118.462V27.5227ZM118.371 27.5227V26.7227H117.859L117.644 27.1875L118.371 27.5227ZM117.416 28.6534L117.88 29.3056L117.883 29.3029L117.416 28.6534ZM114.325 28.7557L113.928 29.4503L113.933 29.4529L114.325 28.7557ZM113.325 27.6648L112.609 28.0203L112.61 28.0225L113.325 27.6648ZM112.962 20.2727V19.4727H112.162V20.2727H112.962ZM114.303 20.2727H115.103V19.4727H114.303V20.2727ZM114.837 27.25L114.254 27.7979L114.257 27.801L114.837 27.25ZM117.229 27.5625L116.877 26.8439L116.874 26.8454L117.229 27.5625ZM118.104 26.7784L117.441 26.3297L117.438 26.3346L118.104 26.7784ZM118.462 25.4318H119.262V20.2727H118.462H117.662V25.4318H118.462ZM118.462 20.2727V21.0727H119.803V20.2727V19.4727H118.462V20.2727ZM119.803 20.2727H119.003V29H119.803H120.603V20.2727H119.803ZM119.803 29V28.2H118.462V29V29.8H119.803V29ZM118.462 29H119.262V27.5227H118.462H117.662V29H118.462ZM118.462 27.5227V26.7227H118.371V27.5227V28.3227H118.462V27.5227ZM118.371 27.5227L117.644 27.1875C117.503 27.4942 117.279 27.7665 116.949 28.004L117.416 28.6534L117.883 29.3029C118.417 28.9191 118.83 28.4376 119.097 27.858L118.371 27.5227ZM117.416 28.6534L116.953 28.0013C116.686 28.1906 116.314 28.3136 115.78 28.3136V29.1136V29.9136C116.564 29.9136 117.282 29.7298 117.88 29.3056L117.416 28.6534ZM115.78 29.1136V28.3136C115.355 28.3136 115.008 28.2219 114.717 28.0584L114.325 28.7557L113.933 29.4529C114.491 29.7668 115.114 29.9136 115.78 29.9136V29.1136ZM114.325 28.7557L114.722 28.0611C114.45 27.9055 114.221 27.6666 114.041 27.307L113.325 27.6648L112.61 28.0225C112.915 28.6326 113.352 29.121 113.928 29.4503L114.325 28.7557ZM113.325 27.6648L114.042 27.3092C113.87 26.9636 113.762 26.4795 113.762 25.8182H112.962H112.162C112.162 26.6417 112.295 27.3887 112.609 28.0203L113.325 27.6648ZM112.962 25.8182H113.762V20.2727H112.962H112.162V25.8182H112.962ZM112.962 20.2727V21.0727H114.303V20.2727V19.4727H112.962V20.2727ZM114.303 20.2727H113.503V25.7273H114.303H115.103V20.2727H114.303ZM114.303 25.7273H113.503C113.503 26.5192 113.728 27.2391 114.254 27.7979L114.837 27.25L115.42 26.7021C115.233 26.5033 115.103 26.2081 115.103 25.7273H114.303ZM114.837 27.25L114.257 27.801C114.778 28.3501 115.452 28.6182 116.212 28.6182V27.8182V27.0182C115.858 27.0182 115.615 26.9075 115.417 26.699L114.837 27.25ZM116.212 27.8182V28.6182C116.686 28.6182 117.145 28.4962 117.583 28.2796L117.229 27.5625L116.874 26.8454C116.623 26.9697 116.404 27.0182 116.212 27.0182V27.8182ZM117.229 27.5625L117.58 28.2811C118.067 28.0429 118.463 27.6812 118.769 27.2222L118.104 26.7784L117.438 26.3346C117.274 26.5802 117.087 26.7412 116.877 26.8439L117.229 27.5625ZM118.104 26.7784L118.766 27.2271C119.117 26.7095 119.262 26.0924 119.262 25.4318H118.462H117.662C117.662 25.8622 117.568 26.1427 117.441 26.3297L118.104 26.7784ZM122.259 29H121.459V29.8H122.259V29ZM122.259 20.2727V19.4727H121.459V20.2727H122.259ZM123.599 20.2727H124.399V19.4727H123.599V20.2727ZM123.599 29V29.8H124.399V29H123.599ZM122.264 18.5511L121.71 19.1285L121.716 19.134L122.264 18.5511ZM122.264 17.267L121.716 16.6841L121.71 16.6897L122.264 17.267ZM123.611 17.267L123.057 17.8444L123.063 17.8499L123.611 17.267ZM123.611 18.5511L123.063 17.9682L123.057 17.9738L123.611 18.5511ZM122.259 29H123.059V20.2727H122.259H121.459V29H122.259ZM122.259 20.2727V21.0727H123.599V20.2727V19.4727H122.259V20.2727ZM123.599 20.2727H122.799V29H123.599H124.399V20.2727H123.599ZM123.599 29V28.2H122.259V29V29.8H123.599V29ZM122.94 18.8182V18.0182C122.881 18.0182 122.852 18.006 122.812 17.9682L122.264 18.5511L121.716 19.134C122.055 19.4524 122.477 19.6182 122.94 19.6182V18.8182ZM122.264 18.5511L122.818 17.9738C122.805 17.9617 122.798 17.9529 122.795 17.9477C122.791 17.9426 122.79 17.9398 122.789 17.9388C122.789 17.9379 122.788 17.9363 122.788 17.933C122.787 17.9294 122.786 17.9219 122.786 17.9091H121.986H121.186C121.186 18.384 121.373 18.8045 121.71 19.1285L122.264 18.5511ZM121.986 17.9091H122.786C122.786 17.8963 122.787 17.8887 122.788 17.8852C122.788 17.8819 122.789 17.8803 122.789 17.8793C122.79 17.8784 122.791 17.8756 122.795 17.8705C122.798 17.8653 122.805 17.8564 122.818 17.8444L122.264 17.267L121.71 16.6897C121.373 17.0137 121.186 17.4342 121.186 17.9091H121.986ZM122.264 17.267L122.812 17.8499C122.852 17.8122 122.881 17.8 122.94 17.8V17V16.2C122.477 16.2 122.055 16.3658 121.716 16.6841L122.264 17.267ZM122.94 17V17.8C122.999 17.8 123.023 17.8118 123.057 17.8444L123.611 17.267L124.165 16.6897C123.827 16.3662 123.404 16.2 122.94 16.2V17ZM123.611 17.267L123.063 17.8499C123.076 17.8624 123.083 17.8715 123.087 17.8767C123.091 17.8818 123.092 17.8844 123.092 17.8848C123.092 17.8851 123.093 17.8859 123.093 17.8883C123.094 17.8908 123.095 17.8973 123.095 17.9091H123.895H124.695C124.695 17.4286 124.502 17.0066 124.159 16.6841L123.611 17.267ZM123.895 17.9091H123.095C123.095 17.9208 123.094 17.9274 123.093 17.9299C123.093 17.9322 123.092 17.9331 123.092 17.9334C123.092 17.9338 123.091 17.9364 123.087 17.9414C123.083 17.9467 123.076 17.9558 123.063 17.9682L123.611 18.5511L124.159 19.134C124.502 18.8116 124.695 18.3895 124.695 17.9091H123.895ZM123.611 18.5511L123.057 17.9738C123.023 18.0064 122.999 18.0182 122.94 18.0182V18.8182V19.6182C123.404 19.6182 123.827 19.452 124.165 19.1285L123.611 18.5511ZM125.805 29H125.005V29.8H125.805V29ZM125.805 27.9773L125.174 27.4858L125.005 27.7026V27.9773H125.805ZM130.76 21.6136L131.391 22.1051L131.56 21.8883V21.6136H130.76ZM130.76 21.5227H131.56V20.7227H130.76V21.5227ZM125.964 21.5227H125.164V22.3227H125.964V21.5227ZM125.964 20.2727V19.4727H125.164V20.2727H125.964ZM132.487 20.2727H133.287V19.4727H132.487V20.2727ZM132.487 21.3409L133.123 21.826L133.287 21.6111V21.3409H132.487ZM127.669 27.6591L127.033 27.174L126.869 27.3889V27.6591H127.669ZM127.669 27.75H126.869V28.55H127.669V27.75ZM132.646 27.75H133.446V26.95H132.646V27.75ZM132.646 29V29.8H133.446V29H132.646ZM125.805 29H126.605V27.9773H125.805H125.005V29H125.805ZM125.805 27.9773L126.437 28.4687L131.391 22.1051L130.76 21.6136L130.129 21.1222L125.174 27.4858L125.805 27.9773ZM130.76 21.6136H131.56V21.5227H130.76H129.96V21.6136H130.76ZM130.76 21.5227V20.7227H125.964V21.5227V22.3227H130.76V21.5227ZM125.964 21.5227H126.764V20.2727H125.964H125.164V21.5227H125.964ZM125.964 20.2727V21.0727H132.487V20.2727V19.4727H125.964V20.2727ZM132.487 20.2727H131.687V21.3409H132.487H133.287V20.2727H132.487ZM132.487 21.3409L131.851 20.8558L127.033 27.174L127.669 27.6591L128.305 28.1442L133.123 21.826L132.487 21.3409ZM127.669 27.6591H126.869V27.75H127.669H128.469V27.6591H127.669ZM127.669 27.75V28.55H132.646V27.75V26.95H127.669V27.75ZM132.646 27.75H131.846V29H132.646H133.446V27.75H132.646ZM132.646 29V28.2H125.805V29V29.8H132.646V29Z" fill="black" mask="url(#path-2-outside-1_3202_915)"/>
</g>
<g filter="url(#filter1_d_3202_915)">
<mask id="path-4-outside-2_3202_915" maskUnits="userSpaceOnUse" x="43" y="16" width="16" height="14" fill="black">
<rect fill="white" x="43" y="16" width="16" height="14"/>
<path d="M45.8864 29H44.4091L48.6818 17.3636H50.1364L54.4091 29H52.9318L49.4545 19.2045H49.3636L45.8864 29ZM46.4318 24.4545H52.3864V25.7045H46.4318V24.4545ZM57.6307 17.3636V29H56.2216V17.3636H57.6307Z"/>
</mask>
<path d="M45.8864 29H44.4091L48.6818 17.3636H50.1364L54.4091 29H52.9318L49.4545 19.2045H49.3636L45.8864 29ZM46.4318 24.4545H52.3864V25.7045H46.4318V24.4545ZM57.6307 17.3636V29H56.2216V17.3636H57.6307Z" fill="#B84EFF"/>
<path d="M45.8864 29V29.8H46.4513L46.6403 29.2676L45.8864 29ZM44.4091 29L43.6581 28.7243L43.2631 29.8H44.4091V29ZM48.6818 17.3636V16.5636H48.1233L47.9308 17.0879L48.6818 17.3636ZM50.1364 17.3636L50.8873 17.0879L50.6948 16.5636H50.1364V17.3636ZM54.4091 29V29.8H55.5551L55.1601 28.7243L54.4091 29ZM52.9318 29L52.1779 29.2676L52.3669 29.8H52.9318V29ZM49.4545 19.2045L50.2085 18.9369L50.0195 18.4045H49.4545V19.2045ZM49.3636 19.2045V18.4045H48.7987L48.6097 18.9369L49.3636 19.2045ZM46.4318 24.4545V23.6545H45.6318V24.4545H46.4318ZM52.3864 24.4545H53.1864V23.6545H52.3864V24.4545ZM52.3864 25.7045V26.5045H53.1864V25.7045H52.3864ZM46.4318 25.7045H45.6318V26.5045H46.4318V25.7045ZM45.8864 29V28.2H44.4091V29V29.8H45.8864V29ZM44.4091 29L45.1601 29.2757L49.4328 17.6394L48.6818 17.3636L47.9308 17.0879L43.6581 28.7243L44.4091 29ZM48.6818 17.3636V18.1636H50.1364V17.3636V16.5636H48.6818V17.3636ZM50.1364 17.3636L49.3854 17.6394L53.6581 29.2757L54.4091 29L55.1601 28.7243L50.8873 17.0879L50.1364 17.3636ZM54.4091 29V28.2H52.9318V29V29.8H54.4091V29ZM52.9318 29L53.6857 28.7324L50.2085 18.9369L49.4545 19.2045L48.7006 19.4722L52.1779 29.2676L52.9318 29ZM49.4545 19.2045V18.4045H49.3636V19.2045V20.0045H49.4545V19.2045ZM49.3636 19.2045L48.6097 18.9369L45.1325 28.7324L45.8864 29L46.6403 29.2676L50.1175 19.4722L49.3636 19.2045ZM46.4318 24.4545V25.2545H52.3864V24.4545V23.6545H46.4318V24.4545ZM52.3864 24.4545H51.5864V25.7045H52.3864H53.1864V24.4545H52.3864ZM52.3864 25.7045V24.9045H46.4318V25.7045V26.5045H52.3864V25.7045ZM46.4318 25.7045H47.2318V24.4545H46.4318H45.6318V25.7045H46.4318ZM57.6307 17.3636H58.4307V16.5636H57.6307V17.3636ZM57.6307 29V29.8H58.4307V29H57.6307ZM56.2216 29H55.4216V29.8H56.2216V29ZM56.2216 17.3636V16.5636H55.4216V17.3636H56.2216ZM57.6307 17.3636H56.8307V29H57.6307H58.4307V17.3636H57.6307ZM57.6307 29V28.2H56.2216V29V29.8H57.6307V29ZM56.2216 29H57.0216V17.3636H56.2216H55.4216V29H56.2216ZM56.2216 17.3636V18.1636H57.6307V17.3636V16.5636H56.2216V17.3636Z" fill="#B84EFF" mask="url(#path-4-outside-2_3202_915)"/>
</g>
<defs>
<filter id="filter0_d_3202_915" x="55.2928" y="16.2" width="82.1535" height="22.6909" filterUnits="userSpaceOnUse" color-interpolation-filters="sRGB">
<feFlood flood-opacity="0" result="BackgroundImageFix"/>
<feColorMatrix in="SourceAlpha" type="matrix" values="0 0 0 0 0 0 0 0 0 0 0 0 0 0 0 0 0 0 127 0" result="hardAlpha"/>
<feOffset dy="4"/>
<feGaussianBlur stdDeviation="2"/>
<feComposite in2="hardAlpha" operator="out"/>
<feColorMatrix type="matrix" values="0 0 0 0 0 0 0 0 0 0 0 0 0 0 0 0 0 0 0.25 0"/>
<feBlend mode="normal" in2="BackgroundImageFix" result="effect1_dropShadow_3202_915"/>
<feBlend mode="normal" in="SourceGraphic" in2="effect1_dropShadow_3202_915" result="shape"/>
</filter>
<filter id="filter1_d_3202_915" x="39.2631" y="16.5636" width="23.1676" height="21.2364" filterUnits="userSpaceOnUse" color-interpolation-filters="sRGB">
<feFlood flood-opacity="0" result="BackgroundImageFix"/>
<feColorMatrix in="SourceAlpha" type="matrix" values="0 0 0 0 0 0 0 0 0 0 0 0 0 0 0 0 0 0 127 0" result="hardAlpha"/>
<feOffset dy="4"/>
<feGaussianBlur stdDeviation="2"/>
<feComposite in2="hardAlpha" operator="out"/>
<feColorMatrix type="matrix" values="0 0 0 0 0 0 0 0 0 0 0 0 0 0 0 0 0 0 0.25 0"/>
<feBlend mode="normal" in2="BackgroundImageFix" result="effect1_dropShadow_3202_915"/>
<feBlend mode="normal" in="SourceGraphic" in2="effect1_dropShadow_3202_915" result="shape"/>
</filter>
</defs>
</svg>
