<svg width="140" height="48" viewBox="0 0 140 48" fill="none" xmlns="http://www.w3.org/2000/svg">
<g opacity="0.84">
<path fill-rule="evenodd" clip-rule="evenodd" d="M17.6265 6.5H32.4282L43.8943 25.1661L28.1157 41.115L5.42735 37.0691L0.269623 17.8593L17.6265 6.5ZM18.1538 11.4692L11.3378 26.5742L17.7882 31.9153L26.6128 28.1178L18.1538 11.4692ZM30.4814 26.7692L39.6952 24.0619L32.497 12.3435L30.4814 26.7692ZM29.8651 9.5H20.5183L27.8492 23.9284L29.8651 9.5ZM36.8446 28.0263L30.0656 30.0182L29.5208 35.4291L36.8446 28.0263ZM26.3441 37.0343L26.9265 31.2487L20.8692 33.8554L26.3441 37.0343ZM19.5047 36.5321L8.59208 34.5862L10.2395 29.5598L16.6775 34.8906L19.5047 36.5321ZM7.80687 27.3497L5.10318 24.2926L6.77186 30.5076L7.80687 27.3497ZM4.27255 18.8249L9.08689 24.2686L14.5904 12.0723L4.27255 18.8249Z" fill="#B84EFF"/>
</g>
<g filter="url(#filter0_d_3202_916)">
<mask id="path-2-outside-1_3202_916" maskUnits="userSpaceOnUse" x="61" y="15" width="75" height="15" fill="black">
<rect fill="white" x="61" y="15" width="75" height="15"/>
<path d="M65.5227 28L62.3409 16.3636H63.7727L66.2045 25.8409H66.3182L68.7955 16.3636H70.3864L72.8636 25.8409H72.9773L75.4091 16.3636H76.8409L73.6591 28H72.2045L69.6364 18.7273H69.5455L66.9773 28H65.5227ZM81.1477 28.1818C80.3598 28.1818 79.6686 27.9943 79.0739 27.6193C78.483 27.2443 78.0208 26.7197 77.6875 26.0455C77.358 25.3712 77.1932 24.5833 77.1932 23.6818C77.1932 22.7727 77.358 21.9792 77.6875 21.3011C78.0208 20.6231 78.483 20.0966 79.0739 19.7216C79.6686 19.3466 80.3598 19.1591 81.1477 19.1591C81.9356 19.1591 82.625 19.3466 83.2159 19.7216C83.8106 20.0966 84.2727 20.6231 84.6023 21.3011C84.9356 21.9792 85.1023 22.7727 85.1023 23.6818C85.1023 24.5833 84.9356 25.3712 84.6023 26.0455C84.2727 26.7197 83.8106 27.2443 83.2159 27.6193C82.625 27.9943 81.9356 28.1818 81.1477 28.1818ZM81.1477 26.9773C81.7462 26.9773 82.2386 26.8239 82.625 26.517C83.0114 26.2102 83.2973 25.8068 83.483 25.3068C83.6686 24.8068 83.7614 24.2652 83.7614 23.6818C83.7614 23.0985 83.6686 22.5549 83.483 22.0511C83.2973 21.5473 83.0114 21.1402 82.625 20.8295C82.2386 20.5189 81.7462 20.3636 81.1477 20.3636C80.5492 20.3636 80.0568 20.5189 79.6705 20.8295C79.2841 21.1402 78.9981 21.5473 78.8125 22.0511C78.6269 22.5549 78.5341 23.0985 78.5341 23.6818C78.5341 24.2652 78.6269 24.8068 78.8125 25.3068C78.9981 25.8068 79.2841 26.2102 79.6705 26.517C80.0568 26.8239 80.5492 26.9773 81.1477 26.9773ZM87.1491 28V19.2727H88.4446V20.5909H88.5355C88.6946 20.1591 88.9825 19.8087 89.3991 19.5398C89.8158 19.2708 90.2855 19.1364 90.8082 19.1364C90.9067 19.1364 91.0298 19.1383 91.1776 19.142C91.3253 19.1458 91.437 19.1515 91.5128 19.1591V20.5227C91.4673 20.5114 91.3632 20.4943 91.2003 20.4716C91.0412 20.4451 90.8726 20.4318 90.6946 20.4318C90.2704 20.4318 89.8916 20.5208 89.5582 20.6989C89.2287 20.8731 88.9673 21.1155 88.7741 21.4261C88.5848 21.733 88.4901 22.0833 88.4901 22.4773V28H87.1491ZM96.1321 28.1818C95.4048 28.1818 94.7628 27.9981 94.206 27.6307C93.6491 27.2595 93.2135 26.7367 92.8991 26.0625C92.5848 25.3845 92.4276 24.5833 92.4276 23.6591C92.4276 22.7424 92.5848 21.947 92.8991 21.2727C93.2135 20.5985 93.651 20.0777 94.2116 19.7102C94.7723 19.3428 95.42 19.1591 96.1548 19.1591C96.723 19.1591 97.1719 19.2538 97.5014 19.4432C97.8348 19.6288 98.0885 19.8409 98.2628 20.0795C98.4408 20.3144 98.5791 20.5076 98.6776 20.6591H98.7912V16.3636H100.132V28H98.8366V26.6591H98.6776C98.5791 26.8182 98.4389 27.0189 98.2571 27.2614C98.0753 27.5 97.8158 27.714 97.4787 27.9034C97.1416 28.089 96.6927 28.1818 96.1321 28.1818ZM96.3139 26.9773C96.8518 26.9773 97.3063 26.8371 97.6776 26.5568C98.0488 26.2727 98.331 25.8807 98.5241 25.3807C98.7173 24.8769 98.8139 24.2955 98.8139 23.6364C98.8139 22.9848 98.7192 22.4148 98.5298 21.9261C98.3404 21.4337 98.0601 21.0511 97.6889 20.7784C97.3177 20.5019 96.8594 20.3636 96.3139 20.3636C95.7457 20.3636 95.2723 20.5095 94.8935 20.8011C94.5185 21.089 94.2363 21.4811 94.0469 21.9773C93.8613 22.4697 93.7685 23.0227 93.7685 23.6364C93.7685 24.2576 93.8632 24.822 94.0526 25.3295C94.2457 25.8333 94.5298 26.2348 94.9048 26.5341C95.2836 26.8295 95.7533 26.9773 96.3139 26.9773ZM107.183 24.3636H108.729L110.024 26.0682L110.365 26.5227L112.297 29.0909H110.751L109.479 27.3864L109.161 26.9545L107.183 24.3636ZM112.774 22.1818C112.774 23.4091 112.553 24.4697 112.109 25.3636C111.666 26.2576 111.058 26.947 110.286 27.4318C109.513 27.9167 108.63 28.1591 107.638 28.1591C106.645 28.1591 105.763 27.9167 104.99 27.4318C104.217 26.947 103.609 26.2576 103.166 25.3636C102.723 24.4697 102.501 23.4091 102.501 22.1818C102.501 20.9545 102.723 19.8939 103.166 19C103.609 18.1061 104.217 17.4167 104.99 16.9318C105.763 16.447 106.645 16.2045 107.638 16.2045C108.63 16.2045 109.513 16.447 110.286 16.9318C111.058 17.4167 111.666 18.1061 112.109 19C112.553 19.8939 112.774 20.9545 112.774 22.1818ZM111.411 22.1818C111.411 21.1742 111.242 20.3239 110.905 19.6307C110.571 18.9375 110.119 18.4129 109.547 18.0568C108.979 17.7008 108.342 17.5227 107.638 17.5227C106.933 17.5227 106.295 17.7008 105.723 18.0568C105.155 18.4129 104.702 18.9375 104.365 19.6307C104.032 20.3239 103.865 21.1742 103.865 22.1818C103.865 23.1894 104.032 24.0398 104.365 24.733C104.702 25.4261 105.155 25.9508 105.723 26.3068C106.295 26.6629 106.933 26.8409 107.638 26.8409C108.342 26.8409 108.979 26.6629 109.547 26.3068C110.119 25.9508 110.571 25.4261 110.905 24.733C111.242 24.0398 111.411 23.1894 111.411 22.1818ZM120.462 24.4318V19.2727H121.803V28H120.462V26.5227H120.371C120.166 26.9659 119.848 27.3428 119.416 27.6534C118.984 27.9602 118.439 28.1136 117.78 28.1136C117.234 28.1136 116.75 27.9943 116.325 27.7557C115.901 27.5133 115.568 27.1496 115.325 26.6648C115.083 26.1761 114.962 25.5606 114.962 24.8182V19.2727H116.303V24.7273C116.303 25.3636 116.481 25.8712 116.837 26.25C117.196 26.6288 117.655 26.8182 118.212 26.8182C118.545 26.8182 118.884 26.733 119.229 26.5625C119.577 26.392 119.869 26.1307 120.104 25.7784C120.342 25.4261 120.462 24.9773 120.462 24.4318ZM124.259 28V19.2727H125.599V28H124.259ZM124.94 17.8182C124.679 17.8182 124.454 17.7292 124.264 17.5511C124.079 17.3731 123.986 17.1591 123.986 16.9091C123.986 16.6591 124.079 16.4451 124.264 16.267C124.454 16.089 124.679 16 124.94 16C125.202 16 125.425 16.089 125.611 16.267C125.8 16.4451 125.895 16.6591 125.895 16.9091C125.895 17.1591 125.8 17.3731 125.611 17.5511C125.425 17.7292 125.202 17.8182 124.94 17.8182ZM127.805 28V26.9773L132.76 20.6136V20.5227H127.964V19.2727H134.487V20.3409L129.669 26.6591V26.75H134.646V28H127.805Z"/>
</mask>
<path d="M65.5227 28L62.3409 16.3636H63.7727L66.2045 25.8409H66.3182L68.7955 16.3636H70.3864L72.8636 25.8409H72.9773L75.4091 16.3636H76.8409L73.6591 28H72.2045L69.6364 18.7273H69.5455L66.9773 28H65.5227ZM81.1477 28.1818C80.3598 28.1818 79.6686 27.9943 79.0739 27.6193C78.483 27.2443 78.0208 26.7197 77.6875 26.0455C77.358 25.3712 77.1932 24.5833 77.1932 23.6818C77.1932 22.7727 77.358 21.9792 77.6875 21.3011C78.0208 20.6231 78.483 20.0966 79.0739 19.7216C79.6686 19.3466 80.3598 19.1591 81.1477 19.1591C81.9356 19.1591 82.625 19.3466 83.2159 19.7216C83.8106 20.0966 84.2727 20.6231 84.6023 21.3011C84.9356 21.9792 85.1023 22.7727 85.1023 23.6818C85.1023 24.5833 84.9356 25.3712 84.6023 26.0455C84.2727 26.7197 83.8106 27.2443 83.2159 27.6193C82.625 27.9943 81.9356 28.1818 81.1477 28.1818ZM81.1477 26.9773C81.7462 26.9773 82.2386 26.8239 82.625 26.517C83.0114 26.2102 83.2973 25.8068 83.483 25.3068C83.6686 24.8068 83.7614 24.2652 83.7614 23.6818C83.7614 23.0985 83.6686 22.5549 83.483 22.0511C83.2973 21.5473 83.0114 21.1402 82.625 20.8295C82.2386 20.5189 81.7462 20.3636 81.1477 20.3636C80.5492 20.3636 80.0568 20.5189 79.6705 20.8295C79.2841 21.1402 78.9981 21.5473 78.8125 22.0511C78.6269 22.5549 78.5341 23.0985 78.5341 23.6818C78.5341 24.2652 78.6269 24.8068 78.8125 25.3068C78.9981 25.8068 79.2841 26.2102 79.6705 26.517C80.0568 26.8239 80.5492 26.9773 81.1477 26.9773ZM87.1491 28V19.2727H88.4446V20.5909H88.5355C88.6946 20.1591 88.9825 19.8087 89.3991 19.5398C89.8158 19.2708 90.2855 19.1364 90.8082 19.1364C90.9067 19.1364 91.0298 19.1383 91.1776 19.142C91.3253 19.1458 91.437 19.1515 91.5128 19.1591V20.5227C91.4673 20.5114 91.3632 20.4943 91.2003 20.4716C91.0412 20.4451 90.8726 20.4318 90.6946 20.4318C90.2704 20.4318 89.8916 20.5208 89.5582 20.6989C89.2287 20.8731 88.9673 21.1155 88.7741 21.4261C88.5848 21.733 88.4901 22.0833 88.4901 22.4773V28H87.1491ZM96.1321 28.1818C95.4048 28.1818 94.7628 27.9981 94.206 27.6307C93.6491 27.2595 93.2135 26.7367 92.8991 26.0625C92.5848 25.3845 92.4276 24.5833 92.4276 23.6591C92.4276 22.7424 92.5848 21.947 92.8991 21.2727C93.2135 20.5985 93.651 20.0777 94.2116 19.7102C94.7723 19.3428 95.42 19.1591 96.1548 19.1591C96.723 19.1591 97.1719 19.2538 97.5014 19.4432C97.8348 19.6288 98.0885 19.8409 98.2628 20.0795C98.4408 20.3144 98.5791 20.5076 98.6776 20.6591H98.7912V16.3636H100.132V28H98.8366V26.6591H98.6776C98.5791 26.8182 98.4389 27.0189 98.2571 27.2614C98.0753 27.5 97.8158 27.714 97.4787 27.9034C97.1416 28.089 96.6927 28.1818 96.1321 28.1818ZM96.3139 26.9773C96.8518 26.9773 97.3063 26.8371 97.6776 26.5568C98.0488 26.2727 98.331 25.8807 98.5241 25.3807C98.7173 24.8769 98.8139 24.2955 98.8139 23.6364C98.8139 22.9848 98.7192 22.4148 98.5298 21.9261C98.3404 21.4337 98.0601 21.0511 97.6889 20.7784C97.3177 20.5019 96.8594 20.3636 96.3139 20.3636C95.7457 20.3636 95.2723 20.5095 94.8935 20.8011C94.5185 21.089 94.2363 21.4811 94.0469 21.9773C93.8613 22.4697 93.7685 23.0227 93.7685 23.6364C93.7685 24.2576 93.8632 24.822 94.0526 25.3295C94.2457 25.8333 94.5298 26.2348 94.9048 26.5341C95.2836 26.8295 95.7533 26.9773 96.3139 26.9773ZM107.183 24.3636H108.729L110.024 26.0682L110.365 26.5227L112.297 29.0909H110.751L109.479 27.3864L109.161 26.9545L107.183 24.3636ZM112.774 22.1818C112.774 23.4091 112.553 24.4697 112.109 25.3636C111.666 26.2576 111.058 26.947 110.286 27.4318C109.513 27.9167 108.63 28.1591 107.638 28.1591C106.645 28.1591 105.763 27.9167 104.99 27.4318C104.217 26.947 103.609 26.2576 103.166 25.3636C102.723 24.4697 102.501 23.4091 102.501 22.1818C102.501 20.9545 102.723 19.8939 103.166 19C103.609 18.1061 104.217 17.4167 104.99 16.9318C105.763 16.447 106.645 16.2045 107.638 16.2045C108.63 16.2045 109.513 16.447 110.286 16.9318C111.058 17.4167 111.666 18.1061 112.109 19C112.553 19.8939 112.774 20.9545 112.774 22.1818ZM111.411 22.1818C111.411 21.1742 111.242 20.3239 110.905 19.6307C110.571 18.9375 110.119 18.4129 109.547 18.0568C108.979 17.7008 108.342 17.5227 107.638 17.5227C106.933 17.5227 106.295 17.7008 105.723 18.0568C105.155 18.4129 104.702 18.9375 104.365 19.6307C104.032 20.3239 103.865 21.1742 103.865 22.1818C103.865 23.1894 104.032 24.0398 104.365 24.733C104.702 25.4261 105.155 25.9508 105.723 26.3068C106.295 26.6629 106.933 26.8409 107.638 26.8409C108.342 26.8409 108.979 26.6629 109.547 26.3068C110.119 25.9508 110.571 25.4261 110.905 24.733C111.242 24.0398 111.411 23.1894 111.411 22.1818ZM120.462 24.4318V19.2727H121.803V28H120.462V26.5227H120.371C120.166 26.9659 119.848 27.3428 119.416 27.6534C118.984 27.9602 118.439 28.1136 117.78 28.1136C117.234 28.1136 116.75 27.9943 116.325 27.7557C115.901 27.5133 115.568 27.1496 115.325 26.6648C115.083 26.1761 114.962 25.5606 114.962 24.8182V19.2727H116.303V24.7273C116.303 25.3636 116.481 25.8712 116.837 26.25C117.196 26.6288 117.655 26.8182 118.212 26.8182C118.545 26.8182 118.884 26.733 119.229 26.5625C119.577 26.392 119.869 26.1307 120.104 25.7784C120.342 25.4261 120.462 24.9773 120.462 24.4318ZM124.259 28V19.2727H125.599V28H124.259ZM124.94 17.8182C124.679 17.8182 124.454 17.7292 124.264 17.5511C124.079 17.3731 123.986 17.1591 123.986 16.9091C123.986 16.6591 124.079 16.4451 124.264 16.267C124.454 16.089 124.679 16 124.94 16C125.202 16 125.425 16.089 125.611 16.267C125.8 16.4451 125.895 16.6591 125.895 16.9091C125.895 17.1591 125.8 17.3731 125.611 17.5511C125.425 17.7292 125.202 17.8182 124.94 17.8182ZM127.805 28V26.9773L132.76 20.6136V20.5227H127.964V19.2727H134.487V20.3409L129.669 26.6591V26.75H134.646V28H127.805Z" fill="white"/>
<path d="M65.5227 28L64.7511 28.211L64.9121 28.8H65.5227V28ZM62.3409 16.3636V15.5636H61.2928L61.5692 16.5746L62.3409 16.3636ZM63.7727 16.3636L64.5476 16.1648L64.3934 15.5636H63.7727V16.3636ZM66.2045 25.8409L65.4296 26.0397L65.5839 26.6409H66.2045V25.8409ZM66.3182 25.8409V26.6409H66.9359L67.0922 26.0432L66.3182 25.8409ZM68.7955 16.3636V15.5636H68.1777L68.0215 16.1613L68.7955 16.3636ZM70.3864 16.3636L71.1604 16.1613L71.0041 15.5636H70.3864V16.3636ZM72.8636 25.8409L72.0896 26.0432L72.2459 26.6409H72.8636V25.8409ZM72.9773 25.8409V26.6409H73.5979L73.7522 26.0397L72.9773 25.8409ZM75.4091 16.3636V15.5636H74.7885L74.6342 16.1648L75.4091 16.3636ZM76.8409 16.3636L77.6126 16.5746L77.889 15.5636H76.8409V16.3636ZM73.6591 28V28.8H74.2697L74.4308 28.211L73.6591 28ZM72.2045 28L71.4336 28.2135L71.596 28.8H72.2045V28ZM69.6364 18.7273L70.4073 18.5137L70.2449 17.9273H69.6364V18.7273ZM69.5455 18.7273V17.9273H68.9369L68.7745 18.5137L69.5455 18.7273ZM66.9773 28V28.8H67.5858L67.7482 28.2135L66.9773 28ZM65.5227 28L66.2944 27.789L63.1126 16.1526L62.3409 16.3636L61.5692 16.5746L64.7511 28.211L65.5227 28ZM62.3409 16.3636V17.1636H63.7727V16.3636V15.5636H62.3409V16.3636ZM63.7727 16.3636L62.9978 16.5625L65.4296 26.0397L66.2045 25.8409L66.9794 25.6421L64.5476 16.1648L63.7727 16.3636ZM66.2045 25.8409V26.6409H66.3182V25.8409V25.0409H66.2045V25.8409ZM66.3182 25.8409L67.0922 26.0432L69.5695 16.566L68.7955 16.3636L68.0215 16.1613L65.5442 25.6386L66.3182 25.8409ZM68.7955 16.3636V17.1636H70.3864V16.3636V15.5636H68.7955V16.3636ZM70.3864 16.3636L69.6124 16.566L72.0896 26.0432L72.8636 25.8409L73.6376 25.6386L71.1604 16.1613L70.3864 16.3636ZM72.8636 25.8409V26.6409H72.9773V25.8409V25.0409H72.8636V25.8409ZM72.9773 25.8409L73.7522 26.0397L76.184 16.5625L75.4091 16.3636L74.6342 16.1648L72.2024 25.6421L72.9773 25.8409ZM75.4091 16.3636V17.1636H76.8409V16.3636V15.5636H75.4091V16.3636ZM76.8409 16.3636L76.0692 16.1526L72.8874 27.789L73.6591 28L74.4308 28.211L77.6126 16.5746L76.8409 16.3636ZM73.6591 28V27.2H72.2045V28V28.8H73.6591V28ZM72.2045 28L72.9755 27.7865L70.4073 18.5137L69.6364 18.7273L68.8654 18.9408L71.4336 28.2135L72.2045 28ZM69.6364 18.7273V17.9273H69.5455V18.7273V19.5273H69.6364V18.7273ZM69.5455 18.7273L68.7745 18.5137L66.2063 27.7865L66.9773 28L67.7482 28.2135L70.3164 18.9408L69.5455 18.7273ZM66.9773 28V27.2H65.5227V28V28.8H66.9773V28ZM79.0739 27.6193L78.6452 28.2948L78.6472 28.296L79.0739 27.6193ZM77.6875 26.0455L76.9687 26.3968L76.9704 26.4L77.6875 26.0455ZM77.6875 21.3011L76.9696 20.9482L76.968 20.9514L77.6875 21.3011ZM79.0739 19.7216L78.6472 19.0449L78.6452 19.0461L79.0739 19.7216ZM83.2159 19.7216L82.7872 20.3971L82.7892 20.3983L83.2159 19.7216ZM84.6023 21.3011L83.8827 21.6508L83.8843 21.6541L84.6023 21.3011ZM84.6023 26.0455L83.8851 25.6909L83.8835 25.6942L84.6023 26.0455ZM83.2159 27.6193L82.7892 26.9426L82.7873 26.9439L83.2159 27.6193ZM82.625 26.517L82.1275 25.8906L82.1275 25.8906L82.625 26.517ZM83.483 25.3068L84.2329 25.5852L84.2329 25.5852L83.483 25.3068ZM83.483 22.0511L84.2336 21.7746L84.2336 21.7746L83.483 22.0511ZM82.625 20.8295L83.1262 20.206L83.1262 20.206L82.625 20.8295ZM79.6705 20.8295L79.1692 20.206L79.1692 20.206L79.6705 20.8295ZM78.8125 22.0511L78.0618 21.7746L78.0618 21.7746L78.8125 22.0511ZM78.8125 25.3068L78.0625 25.5852L78.0625 25.5852L78.8125 25.3068ZM79.6705 26.517L80.168 25.8906L80.168 25.8906L79.6705 26.517ZM81.1477 28.1818V27.3818C80.4921 27.3818 79.9525 27.2276 79.5006 26.9426L79.0739 27.6193L78.6472 28.296C79.3846 28.761 80.2276 28.9818 81.1477 28.9818V28.1818ZM79.0739 27.6193L79.5025 26.9439C79.0446 26.6533 78.6781 26.244 78.4046 25.6909L77.6875 26.0455L76.9704 26.4C77.3636 27.1954 77.9213 27.8354 78.6452 28.2948L79.0739 27.6193ZM77.6875 26.0455L78.4062 25.6942C78.1399 25.1492 77.9932 24.4858 77.9932 23.6818H77.1932H76.3932C76.3932 24.6809 76.576 25.5933 76.9688 26.3968L77.6875 26.0455ZM77.1932 23.6818H77.9932C77.9932 22.8693 78.1402 22.1997 78.407 21.6508L77.6875 21.3011L76.968 20.9514C76.5757 21.7586 76.3932 22.6762 76.3932 23.6818H77.1932ZM77.6875 21.3011L78.4054 21.6541C78.6792 21.0972 79.0457 20.6869 79.5025 20.3971L79.0739 19.7216L78.6452 19.0461C77.9202 19.5062 77.3625 20.149 76.9696 20.9482L77.6875 21.3011ZM79.0739 19.7216L79.5006 20.3983C79.9525 20.1133 80.4921 19.9591 81.1477 19.9591V19.1591V18.3591C80.2276 18.3591 79.3846 18.5799 78.6472 19.0449L79.0739 19.7216ZM81.1477 19.1591V19.9591C81.8035 19.9591 82.3402 20.1133 82.7873 20.3971L83.2159 19.7216L83.6446 19.0461C82.9098 18.5799 82.0678 18.3591 81.1477 18.3591V19.1591ZM83.2159 19.7216L82.7892 20.3983C83.2485 20.6879 83.6135 21.0969 83.8828 21.6508L84.6023 21.3011L85.3218 20.9514C84.9319 20.1493 84.3727 19.5052 83.6426 19.0449L83.2159 19.7216ZM84.6023 21.3011L83.8843 21.6541C84.1538 22.2022 84.3023 22.8705 84.3023 23.6818H85.1023H85.9023C85.9023 22.6749 85.7174 21.7561 85.3202 20.9482L84.6023 21.3011ZM85.1023 23.6818H84.3023C84.3023 24.4845 84.1542 25.1467 83.8851 25.6909L84.6023 26.0455L85.3194 26.4C85.717 25.5957 85.9023 24.6821 85.9023 23.6818H85.1023ZM84.6023 26.0455L83.8835 25.6942C83.6146 26.2443 83.2497 26.6523 82.7892 26.9426L83.2159 27.6193L83.6426 28.296C84.3715 27.8364 84.9308 27.1951 85.321 26.3968L84.6023 26.0455ZM83.2159 27.6193L82.7873 26.9439C82.3402 27.2276 81.8035 27.3818 81.1477 27.3818V28.1818V28.9818C82.0678 28.9818 82.9098 28.7611 83.6446 28.2948L83.2159 27.6193ZM81.1477 26.9773V27.7773C81.8871 27.7773 82.5664 27.5851 83.1225 27.1435L82.625 26.517L82.1275 25.8906C81.9109 26.0626 81.6053 26.1773 81.1477 26.1773V26.9773ZM82.625 26.517L83.1225 27.1435C83.6325 26.7386 84.0008 26.2106 84.2329 25.5852L83.483 25.3068L82.733 25.0284C82.5939 25.403 82.3903 25.6819 82.1275 25.8906L82.625 26.517ZM83.483 25.3068L84.2329 25.5852C84.4546 24.9881 84.5614 24.3513 84.5614 23.6818H83.7614H82.9614C82.9614 24.179 82.8825 24.6255 82.733 25.0284L83.483 25.3068ZM83.7614 23.6818H84.5614C84.5614 23.0123 84.4546 22.3743 84.2336 21.7746L83.483 22.0511L82.7323 22.3277C82.8825 22.7356 82.9614 23.1847 82.9614 23.6818H83.7614ZM83.483 22.0511L84.2336 21.7746C84.0022 21.1464 83.635 20.615 83.1262 20.206L82.625 20.8295L82.1238 21.453C82.3877 21.6653 82.5925 21.9483 82.7323 22.3277L83.483 22.0511ZM82.625 20.8295L83.1262 20.206C82.57 19.7589 81.8894 19.5636 81.1477 19.5636V20.3636V21.1636C81.603 21.1636 81.9072 21.279 82.1238 21.453L82.625 20.8295ZM81.1477 20.3636V19.5636C80.4061 19.5636 79.7254 19.7589 79.1692 20.206L79.6705 20.8295L80.1717 21.453C80.3882 21.279 80.6924 21.1636 81.1477 21.1636V20.3636ZM79.6705 20.8295L79.1692 20.206C78.6604 20.615 78.2933 21.1464 78.0618 21.7746L78.8125 22.0511L79.5632 22.3277C79.7029 21.9483 79.9077 21.6653 80.1717 21.453L79.6705 20.8295ZM78.8125 22.0511L78.0618 21.7746C77.8409 22.3743 77.7341 23.0123 77.7341 23.6818H78.5341H79.3341C79.3341 23.1847 79.4129 22.7356 79.5632 22.3277L78.8125 22.0511ZM78.5341 23.6818H77.7341C77.7341 24.3513 77.8409 24.9881 78.0625 25.5852L78.8125 25.3068L79.5625 25.0284C79.4129 24.6255 79.3341 24.179 79.3341 23.6818H78.5341ZM78.8125 25.3068L78.0625 25.5852C78.2947 26.2106 78.663 26.7386 79.1729 27.1435L79.6705 26.517L80.168 25.8906C79.9052 25.6819 79.7015 25.403 79.5625 25.0284L78.8125 25.3068ZM79.6705 26.517L79.1729 27.1435C79.7291 27.5851 80.4083 27.7773 81.1477 27.7773V26.9773V26.1773C80.6902 26.1773 80.3846 26.0626 80.168 25.8906L79.6705 26.517ZM87.1491 28H86.3491V28.8H87.1491V28ZM87.1491 19.2727V18.4727H86.3491V19.2727H87.1491ZM88.4446 19.2727H89.2446V18.4727H88.4446V19.2727ZM88.4446 20.5909H87.6446V21.3909H88.4446V20.5909ZM88.5355 20.5909V21.3909H89.0933L89.2862 20.8675L88.5355 20.5909ZM89.3991 19.5398L88.9653 18.8676L88.9653 18.8676L89.3991 19.5398ZM91.5128 19.1591H92.3128V18.4351L91.5924 18.3631L91.5128 19.1591ZM91.5128 20.5227L91.3188 21.2988L92.3128 21.5473V20.5227H91.5128ZM91.2003 20.4716L91.0688 21.2607L91.0792 21.2624L91.0897 21.2639L91.2003 20.4716ZM89.5582 20.6989L89.9322 21.4061L89.9351 21.4045L89.5582 20.6989ZM88.7741 21.4261L88.0948 21.0036L88.0934 21.0059L88.7741 21.4261ZM88.4901 28V28.8H89.2901V28H88.4901ZM87.1491 28H87.9491V19.2727H87.1491H86.3491V28H87.1491ZM87.1491 19.2727V20.0727H88.4446V19.2727V18.4727H87.1491V19.2727ZM88.4446 19.2727H87.6446V20.5909H88.4446H89.2446V19.2727H88.4446ZM88.4446 20.5909V21.3909H88.5355V20.5909V19.7909H88.4446V20.5909ZM88.5355 20.5909L89.2862 20.8675C89.3806 20.6113 89.55 20.3946 89.833 20.2119L89.3991 19.5398L88.9653 18.8676C88.415 19.2229 88.0086 19.7069 87.7848 20.3143L88.5355 20.5909ZM89.3991 19.5398L89.833 20.2119C90.1132 20.0311 90.4307 19.9364 90.8082 19.9364V19.1364V18.3364C90.1403 18.3364 89.5184 18.5106 88.9653 18.8676L89.3991 19.5398ZM90.8082 19.1364V19.9364C90.8974 19.9364 91.0131 19.9381 91.1571 19.9418L91.1776 19.142L91.1981 18.3423C91.0465 18.3384 90.916 18.3364 90.8082 18.3364V19.1364ZM91.1776 19.142L91.1571 19.9418C91.2997 19.9454 91.3876 19.9506 91.4332 19.9551L91.5128 19.1591L91.5924 18.3631C91.4864 18.3525 91.3509 18.3462 91.1981 18.3423L91.1776 19.142ZM91.5128 19.1591H90.7128V20.5227H91.5128H92.3128V19.1591H91.5128ZM91.5128 20.5227L91.7068 19.7466C91.6117 19.7228 91.4618 19.7003 91.3108 19.6793L91.2003 20.4716L91.0897 21.2639C91.168 21.2748 91.2279 21.2838 91.2714 21.2909C91.2931 21.2945 91.3084 21.2972 91.3185 21.2991C91.3301 21.3013 91.3285 21.3013 91.3188 21.2988L91.5128 20.5227ZM91.2003 20.4716L91.3318 19.6825C91.125 19.648 90.9122 19.6318 90.6946 19.6318V20.4318V21.2318C90.833 21.2318 90.9573 21.2421 91.0688 21.2607L91.2003 20.4716ZM90.6946 20.4318V19.6318C90.1552 19.6318 89.6443 19.746 89.1814 19.9932L89.5582 20.6989L89.9351 21.4045C90.1389 21.2957 90.3855 21.2318 90.6946 21.2318V20.4318ZM89.5582 20.6989L89.1843 19.9916C88.7321 20.2307 88.3643 20.5704 88.0948 21.0036L88.7741 21.4261L89.4535 21.8486C89.5704 21.6607 89.7253 21.5155 89.9322 21.4061L89.5582 20.6989ZM88.7741 21.4261L88.0934 21.0059C87.8189 21.4506 87.6901 21.9491 87.6901 22.4773H88.4901H89.2901C89.2901 22.2175 89.3506 22.0153 89.4549 21.8464L88.7741 21.4261ZM88.4901 22.4773H87.6901V28H88.4901H89.2901V22.4773H88.4901ZM88.4901 28V27.2H87.1491V28V28.8H88.4901V28ZM94.206 27.6307L93.7622 28.2963L93.7654 28.2984L94.206 27.6307ZM92.8991 26.0625L92.1734 26.399L92.1741 26.4006L92.8991 26.0625ZM92.8991 21.2727L92.1741 20.9346L92.1741 20.9346L92.8991 21.2727ZM94.2116 19.7102L93.7731 19.0411L93.7731 19.0411L94.2116 19.7102ZM97.5014 19.4432L97.1028 20.1369L97.1122 20.1421L97.5014 19.4432ZM98.2628 20.0795L97.6167 20.5513L97.6209 20.5571L97.6253 20.5628L98.2628 20.0795ZM98.6776 20.6591L98.0068 21.0951L98.2434 21.4591H98.6776V20.6591ZM98.7912 20.6591V21.4591H99.5912V20.6591H98.7912ZM98.7912 16.3636V15.5636H97.9912V16.3636H98.7912ZM100.132 16.3636H100.932V15.5636H100.132V16.3636ZM100.132 28V28.8H100.932V28H100.132ZM98.8366 28H98.0366V28.8H98.8366V28ZM98.8366 26.6591H99.6366V25.8591H98.8366V26.6591ZM98.6776 26.6591V25.8591H98.2319L97.9973 26.238L98.6776 26.6591ZM98.2571 27.2614L98.8935 27.7462L98.8971 27.7414L98.2571 27.2614ZM97.4787 27.9034L97.8645 28.6042L97.8705 28.6009L97.4787 27.9034ZM97.6776 26.5568L98.1596 27.1953L98.1638 27.1921L97.6776 26.5568ZM98.5241 25.3807L99.2704 25.669L99.2711 25.6671L98.5241 25.3807ZM98.5298 21.9261L97.7832 22.2133L97.7839 22.2153L98.5298 21.9261ZM97.6889 20.7784L97.211 21.42L97.2153 21.4231L97.6889 20.7784ZM94.8935 20.8011L95.3806 21.4357L95.3815 21.435L94.8935 20.8011ZM94.0469 21.9773L93.2995 21.692L93.2983 21.6951L94.0469 21.9773ZM94.0526 25.3295L93.303 25.6092L93.3056 25.616L94.0526 25.3295ZM94.9048 26.5341L94.4058 27.1594L94.4128 27.1649L94.9048 26.5341ZM96.1321 28.1818V27.3818C95.5467 27.3818 95.0609 27.2363 94.6466 26.963L94.206 27.6307L93.7654 28.2984C94.4647 28.7599 95.2629 28.9818 96.1321 28.9818V28.1818ZM94.206 27.6307L94.6497 26.965C94.2282 26.684 93.8837 26.281 93.6242 25.7244L92.8991 26.0625L92.1741 26.4006C92.5433 27.1925 93.0701 27.8349 93.7622 28.2963L94.206 27.6307ZM92.8991 26.0625L93.6249 25.726C93.3696 25.1753 93.2276 24.4939 93.2276 23.6591H92.4276H91.6276C91.6276 24.6727 91.7999 25.5937 92.1734 26.399L92.8991 26.0625ZM92.4276 23.6591H93.2276C93.2276 22.8327 93.3693 22.1575 93.6242 21.6108L92.8991 21.2727L92.1741 20.9346C91.8002 21.7364 91.6276 22.6521 91.6276 23.6591H92.4276ZM92.8991 21.2727L93.6242 21.6108C93.8828 21.0561 94.2274 20.6564 94.6502 20.3793L94.2116 19.7102L93.7731 19.0411C93.0747 19.4989 92.5442 20.1408 92.1741 20.9346L92.8991 21.2727ZM94.2116 19.7102L94.6502 20.3793C95.068 20.1055 95.5602 19.9591 96.1548 19.9591V19.1591V18.3591C95.2798 18.3591 94.4765 18.5801 93.7731 19.0411L94.2116 19.7102ZM96.1548 19.1591V19.9591C96.6473 19.9591 96.9401 20.0433 97.1028 20.1368L97.5014 19.4432L97.9 18.7496C97.4036 18.4643 96.7988 18.3591 96.1548 18.3591V19.1591ZM97.5014 19.4432L97.1122 20.1421C97.3728 20.2872 97.5275 20.4291 97.6167 20.5513L98.2628 20.0795L98.9089 19.6078C98.6496 19.2527 98.2967 18.9704 97.8906 18.7442L97.5014 19.4432ZM98.2628 20.0795L97.6253 20.5628C97.7979 20.7906 97.9233 20.9666 98.0068 21.0951L98.6776 20.6591L99.3483 20.2231C99.2349 20.0486 99.0837 19.8382 98.9003 19.5963L98.2628 20.0795ZM98.6776 20.6591V21.4591H98.7912V20.6591V19.8591H98.6776V20.6591ZM98.7912 20.6591H99.5912V16.3636H98.7912H97.9912V20.6591H98.7912ZM98.7912 16.3636V17.1636H100.132V16.3636V15.5636H98.7912V16.3636ZM100.132 16.3636H99.3321V28H100.132H100.932V16.3636H100.132ZM100.132 28V27.2H98.8366V28V28.8H100.132V28ZM98.8366 28H99.6366V26.6591H98.8366H98.0366V28H98.8366ZM98.8366 26.6591V25.8591H98.6776V26.6591V27.4591H98.8366V26.6591ZM98.6776 26.6591L97.9973 26.238C97.9166 26.3684 97.7922 26.5479 97.6171 26.7814L98.2571 27.2614L98.8971 27.7414C99.0856 27.49 99.2415 27.2679 99.3578 27.0802L98.6776 26.6591ZM98.2571 27.2614L97.6208 26.7765C97.5212 26.9072 97.3552 27.0552 97.0869 27.2059L97.4787 27.9034L97.8705 28.6009C98.2765 28.3728 98.6293 28.0928 98.8934 27.7462L98.2571 27.2614ZM97.4787 27.9034L97.0929 27.2026C96.9157 27.3001 96.6153 27.3818 96.1321 27.3818V28.1818V28.9818C96.7702 28.9818 97.3674 28.8779 97.8645 28.6042L97.4787 27.9034ZM96.3139 26.9773V27.7773C96.9975 27.7773 97.6286 27.5963 98.1596 27.1953L97.6776 26.5568L97.1955 25.9184C96.9841 26.078 96.7061 26.1773 96.3139 26.1773V26.9773ZM97.6776 26.5568L98.1638 27.1921C98.6683 26.806 99.0321 26.2858 99.2704 25.669L98.5241 25.3807L97.7779 25.0924C97.6299 25.4755 97.4292 25.7395 97.1914 25.9215L97.6776 26.5568ZM98.5241 25.3807L99.2711 25.6671C99.5062 25.0541 99.6139 24.3723 99.6139 23.6364H98.8139H98.0139C98.0139 24.2186 97.9285 24.6997 97.7772 25.0943L98.5241 25.3807ZM98.8139 23.6364H99.6139C99.6139 22.9092 99.5084 22.2373 99.2758 21.637L98.5298 21.9261L97.7839 22.2153C97.93 22.5923 98.0139 23.0605 98.0139 23.6364H98.8139ZM98.5298 21.9261L99.2765 21.639C99.0404 21.025 98.6743 20.5097 98.1626 20.1337L97.6889 20.7784L97.2153 21.4231C97.446 21.5926 97.6405 21.8424 97.7832 22.2133L98.5298 21.9261ZM97.6889 20.7784L98.1668 20.1368C97.6341 19.74 96.9998 19.5636 96.3139 19.5636V20.3636V21.1636C96.7189 21.1636 97.0014 21.2638 97.211 21.42L97.6889 20.7784ZM96.3139 20.3636V19.5636C95.6036 19.5636 94.9491 19.7486 94.4054 20.1673L94.8935 20.8011L95.3815 21.435C95.5954 21.2703 95.8879 21.1636 96.3139 21.1636V20.3636ZM94.8935 20.8011L94.4063 20.1666C93.8999 20.5553 93.5349 21.0751 93.2995 21.692L94.0469 21.9773L94.7943 22.2625C94.9376 21.8871 95.1371 21.6227 95.3806 21.4357L94.8935 20.8011ZM94.0469 21.9773L93.2983 21.6951C93.0735 22.2914 92.9685 22.9421 92.9685 23.6364H93.7685H94.5685C94.5685 23.1034 94.649 22.648 94.7955 22.2594L94.0469 21.9773ZM93.7685 23.6364H92.9685C92.9685 24.3392 93.0757 25.0001 93.303 25.6092L94.0526 25.3295L94.8021 25.0499C94.6506 24.6439 94.5685 24.1759 94.5685 23.6364H93.7685ZM94.0526 25.3295L93.3056 25.616C93.5433 26.2358 93.9061 26.7606 94.4058 27.1594L94.9048 26.5341L95.4038 25.9088C95.1536 25.7091 94.9482 25.4308 94.7995 25.0431L94.0526 25.3295ZM94.9048 26.5341L94.4128 27.1649C94.9548 27.5877 95.6061 27.7773 96.3139 27.7773V26.9773V26.1773C95.9006 26.1773 95.6124 26.0714 95.3969 25.9033L94.9048 26.5341ZM107.183 24.3636V23.5636H105.566L106.547 24.849L107.183 24.3636ZM108.729 24.3636L109.366 23.8796L109.126 23.5636H108.729V24.3636ZM110.024 26.0682L110.664 25.5882L110.661 25.5841L110.024 26.0682ZM110.365 26.5227L109.725 27.0027L109.726 27.0036L110.365 26.5227ZM112.297 29.0909V29.8909H113.9L112.936 28.61L112.297 29.0909ZM110.751 29.0909L110.11 29.5695L110.35 29.8909H110.751V29.0909ZM109.479 27.3864L108.835 27.8609L108.838 27.865L109.479 27.3864ZM109.161 26.9545L109.805 26.4799L109.796 26.4692L109.161 26.9545ZM112.109 25.3636L111.393 25.0083L111.393 25.0083L112.109 25.3636ZM110.286 27.4318L110.711 28.1095L110.711 28.1095L110.286 27.4318ZM104.99 27.4318L104.565 28.1095L104.565 28.1095L104.99 27.4318ZM103.166 25.3636L103.883 25.0083L103.883 25.0083L103.166 25.3636ZM103.166 19L102.449 18.6447L103.166 19ZM110.286 16.9318L110.711 16.2542L110.711 16.2542L110.286 16.9318ZM112.109 19L111.393 19.3553L111.393 19.3553L112.109 19ZM110.905 19.6307L110.184 19.9774L110.185 19.9806L110.905 19.6307ZM109.547 18.0568L109.122 18.7347L109.124 18.736L109.547 18.0568ZM105.723 18.0568L105.3 17.3777L105.298 17.3789L105.723 18.0568ZM104.365 19.6307L103.646 19.2808L103.644 19.284L104.365 19.6307ZM104.365 24.733L103.644 25.0797L103.646 25.0828L104.365 24.733ZM105.723 26.3068L105.298 26.9847L105.3 26.986L105.723 26.3068ZM109.547 26.3068L109.124 25.6277L109.122 25.6289L109.547 26.3068ZM110.905 24.733L110.185 24.3831L110.184 24.3863L110.905 24.733ZM107.183 24.3636V25.1636H108.729V24.3636V23.5636H107.183V24.3636ZM108.729 24.3636L108.092 24.8477L109.387 26.5522L110.024 26.0682L110.661 25.5841L109.366 23.8796L108.729 24.3636ZM110.024 26.0682L109.384 26.5482L109.725 27.0027L110.365 26.5227L111.005 26.0427L110.664 25.5882L110.024 26.0682ZM110.365 26.5227L109.726 27.0036L111.658 29.5718L112.297 29.0909L112.936 28.61L111.004 26.0418L110.365 26.5227ZM112.297 29.0909V28.2909H110.751V29.0909V29.8909H112.297V29.0909ZM110.751 29.0909L111.392 28.6123L110.12 26.9077L109.479 27.3864L108.838 27.865L110.11 29.5695L110.751 29.0909ZM109.479 27.3864L110.123 26.9118L109.805 26.48L109.161 26.9545L108.516 27.4291L108.835 27.8609L109.479 27.3864ZM109.161 26.9545L109.796 26.4692L107.819 23.8783L107.183 24.3636L106.547 24.849L108.525 27.4399L109.161 26.9545ZM112.774 22.1818H111.974C111.974 23.3136 111.77 24.2473 111.393 25.0083L112.109 25.3636L112.826 25.719C113.335 24.6921 113.574 23.5045 113.574 22.1818H112.774ZM112.109 25.3636L111.393 25.0083C111.009 25.7828 110.496 26.3551 109.86 26.7542L110.286 27.4318L110.711 28.1095C111.62 27.5389 112.324 26.7324 112.826 25.719L112.109 25.3636ZM110.286 27.4318L109.86 26.7542C109.226 27.1521 108.494 27.3591 107.638 27.3591V28.1591V28.9591C108.767 28.9591 109.799 28.6813 110.711 28.1095L110.286 27.4318ZM107.638 28.1591V27.3591C106.782 27.3591 106.049 27.1521 105.415 26.7542L104.99 27.4318L104.565 28.1095C105.476 28.6813 106.509 28.9591 107.638 28.9591V28.1591ZM104.99 27.4318L105.415 26.7542C104.779 26.3551 104.267 25.7828 103.883 25.0083L103.166 25.3636L102.449 25.719C102.952 26.7324 103.655 27.5389 104.565 28.1095L104.99 27.4318ZM103.166 25.3636L103.883 25.0083C103.506 24.2473 103.301 23.3136 103.301 22.1818H102.501H101.701C101.701 23.5045 101.94 24.6921 102.449 25.719L103.166 25.3636ZM102.501 22.1818H103.301C103.301 21.05 103.506 20.1163 103.883 19.3553L103.166 19L102.449 18.6447C101.94 19.6715 101.701 20.8591 101.701 22.1818H102.501ZM103.166 19L103.883 19.3553C104.267 18.5809 104.779 18.0086 105.415 17.6095L104.99 16.9318L104.565 16.2542C103.655 16.8248 102.952 17.6313 102.449 18.6447L103.166 19ZM104.99 16.9318L105.415 17.6095C106.049 17.2116 106.782 17.0045 107.638 17.0045V16.2045V15.4045C106.509 15.4045 105.476 15.6824 104.565 16.2542L104.99 16.9318ZM107.638 16.2045V17.0045C108.494 17.0045 109.226 17.2116 109.86 17.6095L110.286 16.9318L110.711 16.2542C109.799 15.6824 108.767 15.4045 107.638 15.4045V16.2045ZM110.286 16.9318L109.86 17.6095C110.496 18.0086 111.009 18.5809 111.393 19.3553L112.109 19L112.826 18.6447C112.324 17.6313 111.62 16.8248 110.711 16.2542L110.286 16.9318ZM112.109 19L111.393 19.3553C111.77 20.1163 111.974 21.05 111.974 22.1818H112.774H113.574C113.574 20.8591 113.335 19.6715 112.826 18.6447L112.109 19ZM111.411 22.1818H112.211C112.211 21.0888 112.028 20.1112 111.624 19.2808L110.905 19.6307L110.185 19.9806C110.456 20.5366 110.611 21.2597 110.611 22.1818H111.411ZM110.905 19.6307L111.626 19.284C111.236 18.4738 110.688 17.8249 109.97 17.3777L109.547 18.0568L109.124 18.736C109.55 19.0009 109.907 19.4012 110.184 19.9774L110.905 19.6307ZM109.547 18.0568L109.972 17.3789C109.27 16.9389 108.485 16.7227 107.638 16.7227V17.5227V18.3227C108.2 18.3227 108.688 18.4626 109.122 18.7347L109.547 18.0568ZM107.638 17.5227V16.7227C106.791 16.7227 106.005 16.9389 105.3 17.3777L105.723 18.0568L106.146 18.736C106.585 18.4626 107.076 18.3227 107.638 18.3227V17.5227ZM105.723 18.0568L105.298 17.3789C104.585 17.8259 104.038 18.4734 103.646 19.2808L104.365 19.6307L105.084 19.9806C105.366 19.4016 105.725 18.9998 106.148 18.7347L105.723 18.0568ZM104.365 19.6307L103.644 19.284C103.245 20.1135 103.065 21.0899 103.065 22.1818H103.865H104.665C104.665 21.2586 104.818 20.5343 105.086 19.9774L104.365 19.6307ZM103.865 22.1818H103.065C103.065 23.2737 103.245 24.2502 103.644 25.0797L104.365 24.733L105.086 24.3863C104.818 23.8294 104.665 23.1051 104.665 22.1818H103.865ZM104.365 24.733L103.646 25.0828C104.038 25.8902 104.585 26.5377 105.298 26.9847L105.723 26.3068L106.148 25.6289C105.725 25.3638 105.366 24.9621 105.084 24.3831L104.365 24.733ZM105.723 26.3068L105.3 26.986C106.005 27.4247 106.791 27.6409 107.638 27.6409V26.8409V26.0409C107.076 26.0409 106.585 25.901 106.146 25.6277L105.723 26.3068ZM107.638 26.8409V27.6409C108.485 27.6409 109.27 27.4247 109.972 26.9847L109.547 26.3068L109.122 25.6289C108.688 25.9011 108.2 26.0409 107.638 26.0409V26.8409ZM109.547 26.3068L109.97 26.986C110.688 26.5387 111.236 25.8898 111.626 25.0797L110.905 24.733L110.184 24.3863C109.907 24.9624 109.55 25.3628 109.124 25.6277L109.547 26.3068ZM110.905 24.733L111.624 25.0828C112.028 24.2525 112.211 23.2748 112.211 22.1818H111.411H110.611C110.611 23.1039 110.456 23.8271 110.185 24.3831L110.905 24.733ZM120.462 19.2727V18.4727H119.662V19.2727H120.462ZM121.803 19.2727H122.603V18.4727H121.803V19.2727ZM121.803 28V28.8H122.603V28H121.803ZM120.462 28H119.662V28.8H120.462V28ZM120.462 26.5227H121.262V25.7227H120.462V26.5227ZM120.371 26.5227V25.7227H119.859L119.644 26.1875L120.371 26.5227ZM119.416 27.6534L119.88 28.3056L119.883 28.3029L119.416 27.6534ZM116.325 27.7557L115.928 28.4503L115.933 28.4529L116.325 27.7557ZM115.325 26.6648L114.609 27.0203L114.61 27.0225L115.325 26.6648ZM114.962 19.2727V18.4727H114.162V19.2727H114.962ZM116.303 19.2727H117.103V18.4727H116.303V19.2727ZM116.837 26.25L116.254 26.7979L116.257 26.801L116.837 26.25ZM119.229 26.5625L118.877 25.8439L118.874 25.8454L119.229 26.5625ZM120.104 25.7784L119.441 25.3297L119.438 25.3346L120.104 25.7784ZM120.462 24.4318H121.262V19.2727H120.462H119.662V24.4318H120.462ZM120.462 19.2727V20.0727H121.803V19.2727V18.4727H120.462V19.2727ZM121.803 19.2727H121.003V28H121.803H122.603V19.2727H121.803ZM121.803 28V27.2H120.462V28V28.8H121.803V28ZM120.462 28H121.262V26.5227H120.462H119.662V28H120.462ZM120.462 26.5227V25.7227H120.371V26.5227V27.3227H120.462V26.5227ZM120.371 26.5227L119.644 26.1875C119.503 26.4942 119.279 26.7665 118.949 27.004L119.416 27.6534L119.883 28.3029C120.417 27.9191 120.83 27.4376 121.097 26.858L120.371 26.5227ZM119.416 27.6534L118.953 27.0013C118.686 27.1906 118.314 27.3136 117.78 27.3136V28.1136V28.9136C118.564 28.9136 119.282 28.7298 119.88 28.3056L119.416 27.6534ZM117.78 28.1136V27.3136C117.355 27.3136 117.008 27.2219 116.717 27.0584L116.325 27.7557L115.933 28.4529C116.491 28.7668 117.114 28.9136 117.78 28.9136V28.1136ZM116.325 27.7557L116.722 27.0611C116.45 26.9055 116.221 26.6666 116.041 26.307L115.325 26.6648L114.61 27.0225C114.915 27.6326 115.352 28.121 115.928 28.4503L116.325 27.7557ZM115.325 26.6648L116.042 26.3092C115.87 25.9636 115.762 25.4795 115.762 24.8182H114.962H114.162C114.162 25.6417 114.295 26.3887 114.609 27.0203L115.325 26.6648ZM114.962 24.8182H115.762V19.2727H114.962H114.162V24.8182H114.962ZM114.962 19.2727V20.0727H116.303V19.2727V18.4727H114.962V19.2727ZM116.303 19.2727H115.503V24.7273H116.303H117.103V19.2727H116.303ZM116.303 24.7273H115.503C115.503 25.5192 115.728 26.2391 116.254 26.7979L116.837 26.25L117.42 25.7021C117.233 25.5033 117.103 25.2081 117.103 24.7273H116.303ZM116.837 26.25L116.257 26.801C116.778 27.3501 117.452 27.6182 118.212 27.6182V26.8182V26.0182C117.858 26.0182 117.615 25.9075 117.417 25.699L116.837 26.25ZM118.212 26.8182V27.6182C118.686 27.6182 119.145 27.4962 119.583 27.2796L119.229 26.5625L118.874 25.8454C118.623 25.9697 118.404 26.0182 118.212 26.0182V26.8182ZM119.229 26.5625L119.58 27.2811C120.067 27.0429 120.463 26.6812 120.769 26.2222L120.104 25.7784L119.438 25.3346C119.274 25.5802 119.087 25.7412 118.877 25.8439L119.229 26.5625ZM120.104 25.7784L120.766 26.2271C121.117 25.7095 121.262 25.0924 121.262 24.4318H120.462H119.662C119.662 24.8622 119.568 25.1427 119.441 25.3297L120.104 25.7784ZM124.259 28H123.459V28.8H124.259V28ZM124.259 19.2727V18.4727H123.459V19.2727H124.259ZM125.599 19.2727H126.399V18.4727H125.599V19.2727ZM125.599 28V28.8H126.399V28H125.599ZM124.264 17.5511L123.71 18.1285L123.716 18.134L124.264 17.5511ZM124.264 16.267L123.716 15.6841L123.71 15.6897L124.264 16.267ZM125.611 16.267L125.057 16.8444L125.063 16.8499L125.611 16.267ZM125.611 17.5511L125.063 16.9682L125.057 16.9738L125.611 17.5511ZM124.259 28H125.059V19.2727H124.259H123.459V28H124.259ZM124.259 19.2727V20.0727H125.599V19.2727V18.4727H124.259V19.2727ZM125.599 19.2727H124.799V28H125.599H126.399V19.2727H125.599ZM125.599 28V27.2H124.259V28V28.8H125.599V28ZM124.94 17.8182V17.0182C124.881 17.0182 124.852 17.006 124.812 16.9682L124.264 17.5511L123.716 18.134C124.055 18.4524 124.477 18.6182 124.94 18.6182V17.8182ZM124.264 17.5511L124.818 16.9738C124.805 16.9617 124.798 16.9529 124.795 16.9477C124.791 16.9426 124.79 16.9398 124.789 16.9388C124.789 16.9379 124.788 16.9363 124.788 16.933C124.787 16.9294 124.786 16.9219 124.786 16.9091H123.986H123.186C123.186 17.384 123.373 17.8045 123.71 18.1285L124.264 17.5511ZM123.986 16.9091H124.786C124.786 16.8963 124.787 16.8887 124.788 16.8852C124.788 16.8819 124.789 16.8803 124.789 16.8793C124.79 16.8784 124.791 16.8756 124.795 16.8705C124.798 16.8653 124.805 16.8564 124.818 16.8444L124.264 16.267L123.71 15.6897C123.373 16.0137 123.186 16.4342 123.186 16.9091H123.986ZM124.264 16.267L124.812 16.8499C124.852 16.8122 124.881 16.8 124.94 16.8V16V15.2C124.477 15.2 124.055 15.3658 123.716 15.6841L124.264 16.267ZM124.94 16V16.8C124.999 16.8 125.023 16.8118 125.057 16.8444L125.611 16.267L126.165 15.6897C125.827 15.3662 125.404 15.2 124.94 15.2V16ZM125.611 16.267L125.063 16.8499C125.076 16.8624 125.083 16.8715 125.087 16.8767C125.091 16.8818 125.092 16.8844 125.092 16.8848C125.092 16.8851 125.093 16.8859 125.093 16.8883C125.094 16.8908 125.095 16.8973 125.095 16.9091H125.895H126.695C126.695 16.4286 126.502 16.0066 126.159 15.6841L125.611 16.267ZM125.895 16.9091H125.095C125.095 16.9208 125.094 16.9274 125.093 16.9299C125.093 16.9322 125.092 16.9331 125.092 16.9334C125.092 16.9338 125.091 16.9364 125.087 16.9414C125.083 16.9467 125.076 16.9558 125.063 16.9682L125.611 17.5511L126.159 18.134C126.502 17.8116 126.695 17.3895 126.695 16.9091H125.895ZM125.611 17.5511L125.057 16.9738C125.023 17.0064 124.999 17.0182 124.94 17.0182V17.8182V18.6182C125.404 18.6182 125.827 18.452 126.165 18.1285L125.611 17.5511ZM127.805 28H127.005V28.8H127.805V28ZM127.805 26.9773L127.174 26.4858L127.005 26.7026V26.9773H127.805ZM132.76 20.6136L133.391 21.1051L133.56 20.8883V20.6136H132.76ZM132.76 20.5227H133.56V19.7227H132.76V20.5227ZM127.964 20.5227H127.164V21.3227H127.964V20.5227ZM127.964 19.2727V18.4727H127.164V19.2727H127.964ZM134.487 19.2727H135.287V18.4727H134.487V19.2727ZM134.487 20.3409L135.123 20.826L135.287 20.6111V20.3409H134.487ZM129.669 26.6591L129.033 26.174L128.869 26.3889V26.6591H129.669ZM129.669 26.75H128.869V27.55H129.669V26.75ZM134.646 26.75H135.446V25.95H134.646V26.75ZM134.646 28V28.8H135.446V28H134.646ZM127.805 28H128.605V26.9773H127.805H127.005V28H127.805ZM127.805 26.9773L128.437 27.4687L133.391 21.1051L132.76 20.6136L132.129 20.1222L127.174 26.4858L127.805 26.9773ZM132.76 20.6136H133.56V20.5227H132.76H131.96V20.6136H132.76ZM132.76 20.5227V19.7227H127.964V20.5227V21.3227H132.76V20.5227ZM127.964 20.5227H128.764V19.2727H127.964H127.164V20.5227H127.964ZM127.964 19.2727V20.0727H134.487V19.2727V18.4727H127.964V19.2727ZM134.487 19.2727H133.687V20.3409H134.487H135.287V19.2727H134.487ZM134.487 20.3409L133.851 19.8558L129.033 26.174L129.669 26.6591L130.305 27.1442L135.123 20.826L134.487 20.3409ZM129.669 26.6591H128.869V26.75H129.669H130.469V26.6591H129.669ZM129.669 26.75V27.55H134.646V26.75V25.95H129.669V26.75ZM134.646 26.75H133.846V28H134.646H135.446V26.75H134.646ZM134.646 28V27.2H127.805V28V28.8H134.646V28Z" fill="white" mask="url(#path-2-outside-1_3202_916)"/>
</g>
<g filter="url(#filter1_d_3202_916)">
<mask id="path-4-outside-2_3202_916" maskUnits="userSpaceOnUse" x="45" y="15" width="16" height="14" fill="black">
<rect fill="white" x="45" y="15" width="16" height="14"/>
<path d="M47.8864 28H46.4091L50.6818 16.3636H52.1364L56.4091 28H54.9318L51.4545 18.2045H51.3636L47.8864 28ZM48.4318 23.4545H54.3864V24.7045H48.4318V23.4545ZM59.6307 16.3636V28H58.2216V16.3636H59.6307Z"/>
</mask>
<path d="M47.8864 28H46.4091L50.6818 16.3636H52.1364L56.4091 28H54.9318L51.4545 18.2045H51.3636L47.8864 28ZM48.4318 23.4545H54.3864V24.7045H48.4318V23.4545ZM59.6307 16.3636V28H58.2216V16.3636H59.6307Z" fill="#B84EFF"/>
<path d="M47.8864 28V28.8H48.4513L48.6403 28.2676L47.8864 28ZM46.4091 28L45.6581 27.7243L45.2631 28.8H46.4091V28ZM50.6818 16.3636V15.5636H50.1233L49.9308 16.0879L50.6818 16.3636ZM52.1364 16.3636L52.8873 16.0879L52.6948 15.5636H52.1364V16.3636ZM56.4091 28V28.8H57.5551L57.1601 27.7243L56.4091 28ZM54.9318 28L54.1779 28.2676L54.3669 28.8H54.9318V28ZM51.4545 18.2045L52.2085 17.9369L52.0195 17.4045H51.4545V18.2045ZM51.3636 18.2045V17.4045H50.7987L50.6097 17.9369L51.3636 18.2045ZM48.4318 23.4545V22.6545H47.6318V23.4545H48.4318ZM54.3864 23.4545H55.1864V22.6545H54.3864V23.4545ZM54.3864 24.7045V25.5045H55.1864V24.7045H54.3864ZM48.4318 24.7045H47.6318V25.5045H48.4318V24.7045ZM47.8864 28V27.2H46.4091V28V28.8H47.8864V28ZM46.4091 28L47.1601 28.2757L51.4328 16.6394L50.6818 16.3636L49.9308 16.0879L45.6581 27.7243L46.4091 28ZM50.6818 16.3636V17.1636H52.1364V16.3636V15.5636H50.6818V16.3636ZM52.1364 16.3636L51.3854 16.6394L55.6581 28.2757L56.4091 28L57.1601 27.7243L52.8873 16.0879L52.1364 16.3636ZM56.4091 28V27.2H54.9318V28V28.8H56.4091V28ZM54.9318 28L55.6857 27.7324L52.2085 17.9369L51.4545 18.2045L50.7006 18.4722L54.1779 28.2676L54.9318 28ZM51.4545 18.2045V17.4045H51.3636V18.2045V19.0045H51.4545V18.2045ZM51.3636 18.2045L50.6097 17.9369L47.1325 27.7324L47.8864 28L48.6403 28.2676L52.1175 18.4722L51.3636 18.2045ZM48.4318 23.4545V24.2545H54.3864V23.4545V22.6545H48.4318V23.4545ZM54.3864 23.4545H53.5864V24.7045H54.3864H55.1864V23.4545H54.3864ZM54.3864 24.7045V23.9045H48.4318V24.7045V25.5045H54.3864V24.7045ZM48.4318 24.7045H49.2318V23.4545H48.4318H47.6318V24.7045H48.4318ZM59.6307 16.3636H60.4307V15.5636H59.6307V16.3636ZM59.6307 28V28.8H60.4307V28H59.6307ZM58.2216 28H57.4216V28.8H58.2216V28ZM58.2216 16.3636V15.5636H57.4216V16.3636H58.2216ZM59.6307 16.3636H58.8307V28H59.6307H60.4307V16.3636H59.6307ZM59.6307 28V27.2H58.2216V28V28.8H59.6307V28ZM58.2216 28H59.0216V16.3636H58.2216H57.4216V28H58.2216ZM58.2216 16.3636V17.1636H59.6307V16.3636V15.5636H58.2216V16.3636Z" fill="#B84EFF" mask="url(#path-4-outside-2_3202_916)"/>
</g>
<defs>
<filter id="filter0_d_3202_916" x="57.2928" y="15.2" width="82.1535" height="22.6909" filterUnits="userSpaceOnUse" color-interpolation-filters="sRGB">
<feFlood flood-opacity="0" result="BackgroundImageFix"/>
<feColorMatrix in="SourceAlpha" type="matrix" values="0 0 0 0 0 0 0 0 0 0 0 0 0 0 0 0 0 0 127 0" result="hardAlpha"/>
<feOffset dy="4"/>
<feGaussianBlur stdDeviation="2"/>
<feComposite in2="hardAlpha" operator="out"/>
<feColorMatrix type="matrix" values="0 0 0 0 0 0 0 0 0 0 0 0 0 0 0 0 0 0 0.25 0"/>
<feBlend mode="normal" in2="BackgroundImageFix" result="effect1_dropShadow_3202_916"/>
<feBlend mode="normal" in="SourceGraphic" in2="effect1_dropShadow_3202_916" result="shape"/>
</filter>
<filter id="filter1_d_3202_916" x="41.2631" y="15.5636" width="23.1676" height="21.2364" filterUnits="userSpaceOnUse" color-interpolation-filters="sRGB">
<feFlood flood-opacity="0" result="BackgroundImageFix"/>
<feColorMatrix in="SourceAlpha" type="matrix" values="0 0 0 0 0 0 0 0 0 0 0 0 0 0 0 0 0 0 127 0" result="hardAlpha"/>
<feOffset dy="4"/>
<feGaussianBlur stdDeviation="2"/>
<feComposite in2="hardAlpha" operator="out"/>
<feColorMatrix type="matrix" values="0 0 0 0 0 0 0 0 0 0 0 0 0 0 0 0 0 0 0.25 0"/>
<feBlend mode="normal" in2="BackgroundImageFix" result="effect1_dropShadow_3202_916"/>
<feBlend mode="normal" in="SourceGraphic" in2="effect1_dropShadow_3202_916" result="shape"/>
</filter>
</defs>
</svg>
